<?xml version="1.0" encoding="utf-8"?>
<!-- Generator: Adobe Illustrator 26.1.0, SVG Export Plug-In . SVG Version: 6.00 Build 0)  -->
<svg version="1.1" id="Capa_1" xmlns="http://www.w3.org/2000/svg" xmlns:xlink="http://www.w3.org/1999/xlink" x="0px" y="0px"
	 viewBox="0 0 50 50" style="enable-background:new 0 0 50 50;" xml:space="preserve">
<style type="text/css">
	.st0{opacity:0.3;}
</style>
<g class="st0">
	<path d="M32.17,25L45.5,11.67c1.97-1.97,1.97-5.2,0-7.17c-1.97-1.97-5.2-1.97-7.17,0L25,17.83L11.67,4.5
		c-1.97-1.97-5.2-1.97-7.17,0c-1.97,1.97-1.97,5.2,0,7.17L17.83,25L4.5,38.33c-1.97,1.97-1.97,5.2,0,7.17c1.97,1.97,5.2,1.97,7.17,0
		L25,32.17L38.33,45.5c1.97,1.97,5.2,1.97,7.17,0c1.97-1.97,1.97-5.2,0-7.17L32.17,25z"/>
</g>
</svg>
