<?xml version="1.0" encoding="utf-8"?>
<!-- Generator: Adobe Illustrator 26.1.0, SVG Export Plug-In . SVG Version: 6.00 Build 0)  -->
<svg version="1.1" id="Capa_1" xmlns="http://www.w3.org/2000/svg" xmlns:xlink="http://www.w3.org/1999/xlink" x="0px" y="0px"
	 viewBox="0 0 400 400" style="enable-background:new 0 0 400 400;" xml:space="preserve">
<g>
	<path d="M377.33,133.73c2.63-3.2,0.69-8.04-3.43-8.53l-82.71-9.85c-2.44-0.29-4.36-2.24-4.59-4.69l-8.07-82.91
		c-0.4-4.12-5.2-6.17-8.45-3.61l-65.45,51.52c-1.93,1.52-4.67,1.49-6.57-0.07l-64.33-52.92c-3.2-2.63-8.04-0.69-8.53,3.43
		l-9.85,82.71c-0.29,2.44-2.24,4.36-4.69,4.59l-82.91,8.07c-4.12,0.4-6.17,5.2-3.61,8.45l51.52,65.45c1.52,1.93,1.49,4.67-0.07,6.57
		l-52.92,64.33c-2.63,3.2-0.69,8.04,3.43,8.53l82.71,9.85c2.44,0.29,4.36,2.24,4.59,4.69l8.07,82.91c0.4,4.12,5.2,6.17,8.45,3.61
		l65.45-51.52c1.93-1.52,4.67-1.49,6.57,0.07l64.33,52.92c3.2,2.63,8.04,0.69,8.53-3.43l9.85-82.71c0.29-2.44,2.24-4.36,4.69-4.59
		l82.91-8.07c4.12-0.4,6.17-5.2,3.61-8.45l-51.52-65.45c-1.52-1.93-1.49-4.67,0.07-6.57L377.33,133.73z M229.58,273.66
		c-9.7,3.89-19.71,5.74-29.56,5.74c-31.46,0-61.24-18.83-73.68-49.81c-16.34-40.68,3.39-86.9,44.07-103.24
		c9.7-3.89,19.71-5.74,29.56-5.74c31.46,0,61.24,18.83,73.68,49.81C289.99,211.1,270.26,257.32,229.58,273.66z"/>
	<path d="M240.08,139.73c-11.95-7.93-25.82-12.12-40.1-12.12h0c-9.24,0-18.3,1.76-26.95,5.24c-17.94,7.2-32,20.96-39.59,38.74
		c-7.59,17.78-7.8,37.45-0.6,55.39c5.49,13.67,14.86,25.19,27.08,33.3c11.95,7.93,25.82,12.12,40.1,12.12
		c9.23,0,18.3-1.76,26.95-5.24c17.94-7.2,32-20.96,39.59-38.74c7.59-17.78,7.8-37.45,0.6-55.39
		C261.67,159.35,252.3,147.84,240.08,139.73z"/>
</g>
</svg>
