<?xml version="1.0" encoding="utf-8"?>
<!-- Generator: Adobe Illustrator 26.1.0, SVG Export Plug-In . SVG Version: 6.00 Build 0)  -->
<svg version="1.1" id="Capa_1" xmlns="http://www.w3.org/2000/svg" xmlns:xlink="http://www.w3.org/1999/xlink" x="0px" y="0px"
	 viewBox="0 0 400 400" style="enable-background:new 0 0 400 400;" xml:space="preserve">
<style type="text/css">
	.st0{opacity:0.85;}
</style>
<g class="st0">
	<path d="M232.66,310.01c2.9,1.22,6.01-1.25,5.48-4.35l-10.8-62.47c-0.32-1.85,0.69-3.66,2.42-4.37l58.71-23.92
		c2.92-1.19,3.37-5.13,0.79-6.95l-51.81-36.53c-1.53-1.08-2.1-3.08-1.38-4.81l24.6-58.42c1.22-2.9-1.25-6.01-4.35-5.48l-62.47,10.8
		c-1.85,0.32-3.66-0.69-4.37-2.42l-23.92-58.71c-1.19-2.92-5.13-3.37-6.95-0.79l-36.53,51.81c-1.08,1.53-3.08,2.1-4.81,1.38
		l-58.42-24.6c-2.9-1.22-6.01,1.25-5.48,4.35L64.19,147c0.32,1.85-0.69,3.66-2.42,4.37L3.06,175.29c-2.92,1.19-3.37,5.13-0.79,6.95
		l51.81,36.53c1.53,1.08,2.1,3.08,1.38,4.81L30.84,282c-1.22,2.9,1.25,6.01,4.35,5.48l62.47-10.8c1.85-0.32,3.66,0.69,4.37,2.42
		l23.92,58.71c1.19,2.92,5.13,3.37,6.95,0.79l36.53-51.81c1.08-1.53,3.08-2.1,4.81-1.38L232.66,310.01z M98.48,232.69
		c-4.95-6.22-8.47-13.13-10.61-20.31c-6.84-22.95,0.41-48.76,20.3-64.57c26.11-20.76,64.11-16.43,84.88,9.69
		c4.95,6.22,8.47,13.13,10.61,20.31c6.84,22.95-0.41,48.76-20.3,64.57C157.24,263.14,119.24,258.8,98.48,232.69z"/>
	<path d="M198.43,211.22c3.18-10.44,3.23-21.46,0.12-31.88l0,0c-2.01-6.74-5.27-12.97-9.68-18.52
		c-9.16-11.52-22.25-18.78-36.87-20.45s-29.01,2.46-40.53,11.61c-8.78,6.98-15.14,16.31-18.4,26.99
		c-3.18,10.44-3.22,21.47-0.12,31.88c2.01,6.73,5.26,12.96,9.68,18.51c9.16,11.52,22.25,18.78,36.87,20.45s29.01-2.46,40.53-11.61
		C188.82,231.23,195.18,221.9,198.43,211.22z"/>
</g>
<path d="M71.42,246l7.07-0.97c-1.99-5.47-3.07-11.37-3.07-17.53c0-28.44,23.06-51.5,51.5-51.5c12.05,0,23.13,4.15,31.9,11.09
	c10.98-32.04,41.34-55.09,77.1-55.09c44.6,0,80.81,35.83,81.47,80.28l2.03-0.28c43.63,0,79,35.37,79,79s-35.37,79-79,79h-248
	c-34.24,0-62-27.76-62-62S37.18,246,71.42,246z"/>
</svg>
