<?xml version="1.0" encoding="utf-8"?>
<!-- Generator: Adobe Illustrator 26.1.0, SVG Export Plug-In . SVG Version: 6.00 Build 0)  -->
<svg version="1.1" id="Capa_1" xmlns="http://www.w3.org/2000/svg" xmlns:xlink="http://www.w3.org/1999/xlink" x="0px" y="0px"
	 viewBox="0 0 400 400" style="enable-background:new 0 0 400 400;" xml:space="preserve">
<style type="text/css">
	.st0{opacity:0.85;}
</style>
<g class="st0">
	<path d="M117.39,209.48c0-55,33.02-102.29,80.32-123.13c3.06-1.35,2.72-5.8-0.5-6.68c-12.16-3.3-25.01-4.95-38.28-4.66
		c-72.54,1.57-131.16,61.2-131.54,133.76C27,283.38,87.37,343.98,161.89,343.98c12.05,0,23.73-1.59,34.85-4.57
		c3.38-0.91,3.72-5.58,0.52-7C150.21,311.47,117.39,264.31,117.39,209.48z"/>
</g>
<path d="M70,249l7.07-0.97C75.08,242.56,74,236.66,74,230.5c0-28.44,23.06-51.5,51.5-51.5c12.05,0,23.13,4.15,31.9,11.09
	c10.98-32.04,41.34-55.09,77.1-55.09c44.6,0,80.81,35.83,81.47,80.28L318,215c43.63,0,79,35.37,79,79s-35.37,79-79,79H70
	c-34.24,0-62-27.76-62-62S35.76,249,70,249z"/>
</svg>
