<?xml version="1.0" encoding="utf-8"?>
<!-- Generator: Adobe Illustrator 26.1.0, SVG Export Plug-In . SVG Version: 6.00 Build 0)  -->
<svg version="1.1" id="Capa_1" xmlns="http://www.w3.org/2000/svg" xmlns:xlink="http://www.w3.org/1999/xlink" x="0px" y="0px"
	 viewBox="0 0 400 400" style="enable-background:new 0 0 400 400;" xml:space="preserve">
<style type="text/css">
	.st0{opacity:0.8;enable-background:new    ;}
	.st1{opacity:0.8;fill:none;stroke:#000000;stroke-width:13;stroke-linecap:round;stroke-linejoin:round;stroke-miterlimit:10;}
	
		.st2{opacity:0.8;fill:none;stroke:#000000;stroke-width:13;stroke-linecap:round;stroke-linejoin:round;stroke-miterlimit:10;stroke-dasharray:150,30,30;}
	
		.st3{opacity:0.8;fill:none;stroke:#000000;stroke-width:13;stroke-linecap:round;stroke-linejoin:round;stroke-miterlimit:10;stroke-dasharray:100,30,30;}
</style>
<g>
	<path class="st0" d="M122.89,211.14l5.58-0.77c-1.57-4.32-2.42-8.97-2.42-13.83c0-22.44,18.2-40.64,40.64-40.64
		c9.51,0,18.25,3.28,25.17,8.75c8.67-25.28,32.62-43.47,60.84-43.47c35.2,0,63.77,28.28,64.29,63.35l1.6-0.22
		c34.43,0,62.34,27.91,62.34,62.34S353.04,309,318.61,309H122.89c-27.02,0-48.93-21.91-48.93-48.93
		C73.97,233.05,95.87,211.14,122.89,211.14z"/>
	<line class="st1" x1="73.14" y1="244.92" x2="144.53" y2="244.92"/>
	<line class="st1" x1="117.48" y1="322.44" x2="258.52" y2="322.44"/>
	<line class="st2" x1="43.44" y1="270.76" x2="236.44" y2="270.76"/>
	<line class="st3" x1="184.48" y1="296.6" x2="-8.52" y2="296.6"/>
</g>
</svg>
