<?xml version="1.0" encoding="utf-8"?>
<!-- Generator: Adobe Illustrator 26.1.0, SVG Export Plug-In . SVG Version: 6.00 Build 0)  -->
<svg version="1.1" id="Capa_1" xmlns="http://www.w3.org/2000/svg" xmlns:xlink="http://www.w3.org/1999/xlink" x="0px" y="0px"
	 viewBox="0 0 400 400" style="enable-background:new 0 0 400 400;" xml:space="preserve">
<style type="text/css">
	.st0{opacity:0.15;fill:#FFFFFF;enable-background:new    ;}
	.st1{opacity:0.35;fill:#FFFFFF;enable-background:new    ;}
	.st2{opacity:0.8;fill:#FFFFFF;enable-background:new    ;}
	.st3{opacity:0.3;fill:#EDB55D;enable-background:new    ;}
</style>
<path class="st0" d="M383.85,278.45c-20.97,49.12-59.8,87.12-109.35,107.02c-23.88,9.62-48.93,14.49-74.42,14.49
	c-39.47,0-77.76-11.58-110.79-33.47c-33.77-22.39-59.61-54.21-74.78-91.98c-19.88-49.56-19.32-103.92,1.65-152.98
	C37.12,72.4,75.96,34.41,125.5,14.53c23.88-9.62,48.93-14.49,74.42-14.49c39.47,0,77.76,11.58,110.79,33.47
	c33.78,22.42,59.63,54.21,74.78,91.95C405.38,175.01,404.81,229.36,383.85,278.45z"/>
<path class="st1" d="M344.21,261.55c-16.44,38.53-46.9,68.34-85.78,83.93c-18.73,7.55-38.38,11.36-58.38,11.36
	c-30.96,0-60.99-9.08-86.9-26.26C86.67,313,66.39,288.05,54.49,258.43c-15.59-38.88-15.15-81.51,1.29-119.99
	c16.44-38.53,46.9-68.31,85.78-83.92c18.73-7.55,38.38-11.36,58.38-11.36c30.96,0,60.99,9.08,86.9,26.26
	c26.49,17.59,46.77,42.52,58.66,72.13C361.11,180.41,360.67,223.03,344.21,261.55z"/>
<path class="st2" d="M256.73,114.69c-16.93-11.23-36.54-17.15-56.76-17.15c-13.06,0-25.91,2.5-38.13,7.42
	c-25.39,10.2-45.29,29.67-56.04,54.82c-10.74,25.16-11.04,53-0.85,78.41c7.76,19.35,21.03,35.66,38.32,47.12
	c16.93,11.23,36.56,17.15,56.76,17.15c13.06,0,25.91-2.5,38.13-7.42c25.39-10.2,45.29-29.67,56.04-54.85
	c10.74-25.16,11.04-53,0.85-78.41C287.3,142.46,274.06,126.18,256.73,114.69z"/>
<path class="st3" d="M256.73,114.69c-16.93-11.23-36.54-17.15-56.76-17.15c-13.06,0-25.91,2.5-38.13,7.42
	c-25.39,10.2-45.29,29.67-56.04,54.82c-10.74,25.16-11.04,53-0.85,78.41c7.76,19.35,21.03,35.66,38.32,47.12
	c16.93,11.23,36.56,17.15,56.76,17.15c13.06,0,25.91-2.5,38.13-7.42c25.39-10.2,45.29-29.67,56.04-54.85
	c10.74-25.16,11.04-53,0.85-78.41C287.3,142.46,274.06,126.18,256.73,114.69z"/>
</svg>
