<?xml version="1.0" encoding="utf-8"?>
<!-- Generator: Adobe Illustrator 26.1.0, SVG Export Plug-In . SVG Version: 6.00 Build 0)  -->
<svg version="1.1" id="Capa_1" xmlns="http://www.w3.org/2000/svg" xmlns:xlink="http://www.w3.org/1999/xlink" x="0px" y="0px"
	 viewBox="0 0 400 400" style="enable-background:new 0 0 400 400;" xml:space="preserve">
<style type="text/css">
	.st0{opacity:0.2;fill:#FFFFFF;enable-background:new    ;}
	.st1{opacity:0.8;fill:#D7EBF5;enable-background:new    ;}
	.st2{opacity:0.4;}
	.st3{fill:#A2BFC9;}
</style>
<g>
	<path class="st0" d="M383.85,278.46c-20.97,49.11-59.81,87.12-109.36,107.02c-23.89,9.63-48.93,14.49-74.41,14.49
		c-39.45,0-77.76-11.57-110.8-33.48c-33.75-22.4-59.61-54.22-74.76-92c-19.9-49.55-19.32-103.91,1.65-152.98
		C37.13,72.4,75.97,34.4,125.52,14.52c23.89-9.63,48.93-14.49,74.41-14.49c39.45,0,77.76,11.57,110.8,33.48
		c33.79,22.42,59.63,54.2,74.78,91.96C405.38,175.02,404.8,229.37,383.85,278.46z"/>
	<g>
		<path class="st1" d="M352.38,265.04c-17.39,40.72-49.57,72.22-90.65,88.69c-19.8,7.98-40.55,12-61.69,12
			c-32.71,0-64.46-9.59-91.84-27.74c-27.98-18.58-49.42-44.94-61.98-76.24c-16.49-41.08-16.01-86.14,1.35-126.81
			c17.39-40.72,49.57-72.21,90.65-88.69c19.8-7.98,40.55-12,61.69-12c32.71,0,64.46,9.59,91.84,27.74
			c28.01,18.58,49.42,44.94,61.98,76.23C370.25,179.29,369.77,224.34,352.38,265.04z"/>
		<g class="st2">
			<path class="st3" d="M160.16,209.82c-1.88,4.4-5.37,7.81-9.81,9.59c-2.14,0.86-4.39,1.3-6.68,1.3c-3.53,0-6.97-1.04-9.92-3
				c-3.02-2.01-5.34-4.86-6.69-8.24c-1.78-4.43-1.73-9.31,0.15-13.72c1.88-4.4,5.37-7.8,9.81-9.59c2.14-0.86,4.39-1.3,6.68-1.3
				c3.53,0,6.97,1.04,9.92,3c3.03,2.01,5.34,4.86,6.69,8.24C162.09,200.57,162.04,205.45,160.16,209.82z"/>
			<path class="st3" d="M313.51,162.11c-2.98,6.96-8.46,12.33-15.46,15.13c-3.38,1.35-6.92,2.04-10.53,2.04
				c-5.59,0-11.01-1.65-15.68-4.73c-4.78-3.18-8.42-7.67-10.58-13.02c-2.8-7.01-2.74-14.7,0.23-21.65
				c2.98-6.96,8.46-12.31,15.46-15.13c3.38-1.35,6.92-2.04,10.53-2.04c5.59,0,11.01,1.65,15.68,4.73
				c4.78,3.18,8.44,7.67,10.58,13.01C316.56,147.47,316.46,155.17,313.51,162.11z"/>
			<path class="st3" d="M352.13,265.04c5.11-11.98,8.74-24.33,10.93-36.84c-2.7-2.7-5.67-5.14-8.9-7.29
				c-9.59-6.35-20.71-9.71-32.16-9.71c-7.4,0-14.67,1.42-21.6,4.19c-14.38,5.77-25.65,16.78-31.73,31.06
				c-6.08,14.24-6.25,30-0.49,44.39c4.4,10.96,11.9,20.19,21.69,26.69c5.59,3.71,11.7,6.4,18.12,7.98
				C326.94,309.21,342.03,288.68,352.13,265.04z"/>
			<path class="st3" d="M66.79,146.1c14.38-5.77,25.65-16.8,31.73-31.06c6.08-14.26,6.25-30.02,0.49-44.39
				c-0.23-0.59-0.49-1.15-0.73-1.73C76.15,86,58.64,108.51,47.35,134.94c-2.14,5.03-4.04,10.11-5.67,15.25
				c1.17,0.07,2.34,0.12,3.53,0.12C52.58,150.29,59.85,148.89,66.79,146.1z"/>
			<path class="st3" d="M205.33,311.58c-4.35,10.17-12.4,18.07-22.67,22.19c-4.95,2.01-10.14,3-15.43,3
				c-8.19,0-16.11-2.41-22.95-6.94c-6.99-4.63-12.36-11.23-15.5-19.07c-4.12-10.27-4.01-21.53,0.35-31.72
				c4.35-10.17,12.4-18.05,22.67-22.19c4.95-2.01,10.14-3,15.43-3c8.19,0,16.11,2.41,22.95,6.94c6.99,4.65,12.36,11.23,15.5,19.06
				C209.8,290.13,209.68,301.41,205.33,311.58z"/>
			<path class="st3" d="M231.82,221.47c-0.59,1.37-1.68,2.44-3.05,2.98c-0.68,0.26-1.37,0.4-2.08,0.4c-1.1,0-2.18-0.31-3.1-0.92
				c-0.94-0.63-1.67-1.52-2.09-2.57c-0.56-1.37-0.54-2.9,0.05-4.27s1.68-2.44,3.05-2.98c0.68-0.26,1.37-0.4,2.08-0.4
				c1.1,0,2.18,0.31,3.1,0.92c0.94,0.63,1.67,1.52,2.09,2.57C232.42,218.59,232.38,220.1,231.82,221.47z"/>
			<path class="st3" d="M76.37,187.08c-0.59,1.37-1.68,2.44-3.05,2.98c-0.68,0.26-1.37,0.4-2.08,0.4c-1.1,0-2.18-0.31-3.1-0.92
				c-0.94-0.63-1.67-1.52-2.09-2.57c-0.56-1.37-0.54-2.9,0.05-4.27c0.59-1.37,1.68-2.44,3.05-2.98c0.68-0.26,1.37-0.4,2.08-0.4
				c1.1,0,2.18,0.31,3.1,0.92c0.94,0.63,1.68,1.52,2.09,2.57C76.98,184.2,76.96,185.72,76.37,187.08z"/>
		</g>
	</g>
</g>
</svg>
