<?xml version="1.0" encoding="utf-8"?>
<!-- Generator: Adobe Illustrator 26.1.0, SVG Export Plug-In . SVG Version: 6.00 Build 0)  -->
<svg version="1.1" id="Capa_1" xmlns="http://www.w3.org/2000/svg" xmlns:xlink="http://www.w3.org/1999/xlink" x="0px" y="0px"
	 viewBox="0 0 400 400" style="enable-background:new 0 0 400 400;" xml:space="preserve">
<style type="text/css">
	.lightOutside{
		opacity:0.15;
		fill:#FFFFFF;
		enable-background:new;
		animation: pulse1 3s alternate infinite;
	}
	@keyframes pulse1 {
  		0% {
    		opacity:0.10;
			fill:#FFFFFF;

  		}
 		100% {
    		opacity:0.15;
			fill:#FFFFFF;
		}
	}

	.lightInside{
		opacity:0.35;
		fill:#FFFFFF;
		enable-background:new;
		animation: pulse2 3s alternate infinite;
	}
	@keyframes pulse2 {
  		0% {
    		opacity:0.15;
			fill:#FFFFFF;

  		}
 		100% {
    		opacity:0.20;
			fill:#FFFFFF;
		}
	}

	.centerBase{
		opacity:0.8;
		fill:#FFFFFF;
		enable-background:new;
	}
	
	.center
		{opacity:0.3;
		fill:#EDB55D;
		enable-background:new;
		animation: pulse3 3s alternate infinite;
	}
	@keyframes pulse3 {
  		0% {
    		opacity:0.3;
			fill:#EDB55D;
  		}
 		100% {
    		opacity:0.5;
			fill:#EDB55D;
		}
	}

	.cloud{
		opacity:0.7;
		fill:#FFFFFF;
		enable-background:new;
		animation: cloud ease-in-out 7s alternate infinite;
	}
	@keyframes cloud {
  		0% {
    		transform: translate(0);
  		}
 		100% {
    		transform: translate(-20%);

		}
	}
</style>
<g id="sun">
	<path class="lightOutside" d="M261.23,251.13c-14.27,33.43-40.7,59.29-74.42,72.83c-16.25,6.55-33.3,9.86-50.65,9.86
		c-26.86,0-52.92-7.88-75.4-22.78c-22.98-15.24-40.57-36.89-50.89-62.6c-13.53-33.73-13.15-70.72,1.12-104.11
		c14.27-33.43,40.7-59.28,74.42-72.81c16.25-6.55,33.3-9.86,50.65-9.86c26.86,0,52.92,7.88,75.4,22.78
		c22.99,15.26,40.58,36.89,50.89,62.58C275.88,180.73,275.49,217.72,261.23,251.13z"/>
	<path class="lightInside" d="M234.24,239.62c-11.19,26.22-31.92,46.51-58.38,57.12c-12.75,5.14-26.12,7.73-39.73,7.73
		c-21.07,0-41.51-6.18-59.14-17.87c-18.02-11.96-31.82-28.94-39.92-49.1c-10.61-26.46-10.31-55.47,0.88-81.66
		c11.19-26.22,31.92-46.49,58.38-57.11c12.75-5.14,26.12-7.73,39.73-7.73c21.07,0,41.51,6.18,59.14,17.87
		c18.03,11.97,31.83,28.94,39.92,49.09C245.74,184.4,245.44,213.41,234.24,239.62z"/>
	<path class="centerBase" d="M174.72,139.67C163.2,132.03,149.85,128,136.09,128c-8.89,0-17.63,1.7-25.95,5.05
		c-17.28,6.94-30.82,20.19-38.14,37.31c-7.31,17.12-7.51,36.07-0.58,53.36c5.28,13.17,14.31,24.27,26.08,32.07
		c11.52,7.64,24.88,11.67,38.63,11.67c8.89,0,17.63-1.7,25.95-5.05c17.28-6.94,30.82-20.19,38.14-37.33
		c7.31-17.12,7.51-36.07,0.58-53.36C195.52,158.57,186.51,147.49,174.72,139.67z"/>
	<path class="center" d="M174.72,139.67C163.2,132.03,149.85,128,136.09,128c-8.89,0-17.63,1.7-25.95,5.05
		c-17.28,6.94-30.82,20.19-38.14,37.31c-7.31,17.12-7.51,36.07-0.58,53.36c5.28,13.17,14.31,24.27,26.08,32.07
		c11.52,7.64,24.88,11.67,38.63,11.67c8.89,0,17.63-1.7,25.95-5.05c17.28-6.94,30.82-20.19,38.14-37.33
		c7.31-17.12,7.51-36.07,0.58-53.36C195.52,158.57,186.51,147.49,174.72,139.67z"/>

</g>
	<path class="cloud" d="M142.85,240.84l5.56-0.76c-1.56-4.3-2.41-8.94-2.41-13.79c0-22.36,18.13-40.5,40.5-40.5
		c9.48,0,18.19,3.26,25.09,8.72c8.63-25.2,32.51-43.32,60.63-43.32c35.07,0,63.55,28.18,64.07,63.13l1.6-0.22
		c34.31,0,62.12,27.81,62.12,62.12s-27.81,62.12-62.12,62.12H142.85c-26.93,0-48.76-21.83-48.76-48.76S115.92,240.84,142.85,240.84z
		"/>
</svg>
