<?xml version="1.0" encoding="utf-8"?>
<!-- Generator: Adobe Illustrator 26.1.0, SVG Export Plug-In . SVG Version: 6.00 Build 0)  -->
<svg version="1.1" id="Capa_1" xmlns="http://www.w3.org/2000/svg" xmlns:xlink="http://www.w3.org/1999/xlink" x="0px" y="0px"
	 viewBox="0 0 400 400" style="enable-background:new 0 0 400 400;" xml:space="preserve">
<style type="text/css">
	.moonLight{
		opacity:0.2;
		fill:#FFFFFF;
		enable-background:new;
		animation: pulse1 4s alternate infinite;
	}
	@keyframes pulse1 {
  		0% {
    		opacity:0.05;
			fill:#FFFFFF;

  		}
 		100% {
    		opacity:0.2;
			fill:#FFFFFF;
		}
	}
	
	.moonBase{
		opacity:0.8;
		fill:#D7EBF5;
		enable-background:new;
		animation: pulse2 4s alternate infinite;

	}
	@keyframes pulse2 {
  		0% {
    		opacity:0.7;
			fill:#D7EBF5;

  		}
 		100% {
    		opacity:0.9;
			fill:#D7EBF5;
		}
	}

	#moon{
		transform-origin: center;
		transform-box: fill-box;
		animation: rotate 40s alternate infinite;
	}
	@keyframes rotate {
  		0% {
			transform:rotate(0);
  		}
 		100% {
			transform:rotate(360deg);
		}
	}
	
	.moonSpots{
		fill:#A2BFC9;
		opacity:0.4;
		animation: pulse3 4s alternate infinite;
	}
	@keyframes pulse3 {
  		0% {
    		opacity:0.3;
			fill:#A2BFC9;
  		}
 		100% {
    		opacity:0.5;
			fill:#A2BFC9;
		}
	}

	.cloud{
		opacity:0.7;
		fill:#FFFFFF;
		enable-background:new;
		animation: cloud ease-in-out 7s alternate infinite;
	}
	@keyframes cloud {
  		0% {
    		transform: translate(0);
  		}
 		100% {
    		transform: translate(-20%);

		}
	}
</style>
	<g id="moon">
		<path class="moonLight" d="M232.85,238.39c-12.72,29.79-36.28,52.85-66.34,64.92c-14.49,5.84-29.68,8.79-45.14,8.79
			c-23.93,0-47.17-7.02-67.21-20.31C33.69,278.2,18,258.9,8.81,235.98c-12.07-30.06-11.72-63.03,1-92.8
			c12.72-29.79,36.28-52.84,66.34-64.9c14.49-5.84,29.68-8.79,45.14-8.79c23.93,0,47.17,7.02,67.21,20.31
			c20.5,13.6,36.17,32.88,45.36,55.78C245.91,175.64,245.56,208.61,232.85,238.39z"/>
		
		<path class="moonBase" d="M213.76,230.25c-10.55,24.7-30.07,43.81-54.99,53.8c-12.01,4.84-24.6,7.28-37.42,7.28
			c-19.84,0-39.1-5.82-55.71-16.83c-16.97-11.27-29.98-27.26-37.6-46.25c-10-24.92-9.71-52.25,0.82-76.92
			c10.55-24.7,30.07-43.8,54.99-53.8c12.01-4.84,24.6-7.28,37.42-7.28c19.84,0,39.1,5.82,55.71,16.83
			c16.99,11.27,29.98,27.26,37.6,46.24C224.6,178.23,224.31,205.56,213.76,230.25z"/>
			
		<g class="moonSpots">
			<path class="spot" d="M97.16,196.75c-1.14,2.67-3.26,4.74-5.95,5.82c-1.3,0.52-2.66,0.79-4.05,0.79c-2.14,0-4.23-0.63-6.02-1.82
				c-1.83-1.22-3.24-2.95-4.06-5c-1.08-2.69-1.05-5.65,0.09-8.32c1.14-2.67,3.26-4.73,5.95-5.82c1.3-0.52,2.66-0.79,4.05-0.79
				c2.14,0,4.23,0.63,6.02,1.82c1.84,1.22,3.24,2.95,4.06,5C98.33,191.14,98.3,194.1,97.16,196.75z"/>
			<path class="spot" d="M190.18,167.81c-1.81,4.22-5.13,7.48-9.38,9.18c-2.05,0.82-4.2,1.24-6.39,1.24c-3.39,0-6.68-1-9.51-2.87
				c-2.9-1.93-5.11-4.65-6.42-7.9c-1.7-4.25-1.66-8.92,0.14-13.13c1.81-4.22,5.13-7.47,9.38-9.18c2.05-0.82,4.2-1.24,6.39-1.24
				c3.39,0,6.68,1,9.51,2.87c2.9,1.93,5.12,4.65,6.42,7.89C192.03,158.93,191.97,163.6,190.18,167.81z"/>
			<path class="spot" d="M213.61,230.25c3.1-7.27,5.3-14.76,6.63-22.35c-1.64-1.64-3.44-3.12-5.4-4.42
				c-5.82-3.85-12.56-5.89-19.51-5.89c-4.49,0-8.9,0.86-13.1,2.54c-8.72,3.5-15.56,10.18-19.25,18.84
				c-3.69,8.64-3.79,18.2-0.3,26.93c2.67,6.65,7.22,12.25,13.16,16.19c3.39,2.25,7.1,3.88,10.99,4.84
				C198.33,257.04,207.48,244.59,213.61,230.25z"/>
			<path class="spot" d="M40.52,158.1c8.72-3.5,15.56-10.19,19.25-18.84c3.69-8.65,3.79-18.21,0.3-26.93
				c-0.14-0.36-0.3-0.7-0.44-1.05c-13.43,10.36-24.05,24.02-30.9,40.05c-1.3,3.05-2.45,6.13-3.44,9.25
				c0.71,0.04,1.42,0.07,2.14,0.07C31.9,160.64,36.31,159.79,40.52,158.1z"/>
			<path class="spot" d="M124.56,258.48c-2.64,6.17-7.52,10.96-13.75,13.46c-3,1.22-6.15,1.82-9.36,1.82
				c-4.97,0-9.77-1.46-13.92-4.21c-4.24-2.81-7.5-6.81-9.4-11.57c-2.5-6.23-2.43-13.06,0.21-19.24
				c2.64-6.17,7.52-10.95,13.75-13.46c3-1.22,6.15-1.82,9.36-1.82c4.97,0,9.77,1.46,13.92,4.21c4.24,2.82,7.5,6.81,9.4,11.56
				C127.27,245.47,127.2,252.31,124.56,258.48z"/>
			<path class="spot" d="M140.63,203.82c-0.36,0.83-1.02,1.48-1.85,1.81c-0.41,0.16-0.83,0.24-1.26,0.24
				c-0.67,0-1.32-0.19-1.88-0.56c-0.57-0.38-1.01-0.92-1.27-1.56c-0.34-0.83-0.33-1.76,0.03-2.59c0.36-0.83,1.02-1.48,1.85-1.81
				c0.41-0.16,0.83-0.24,1.26-0.24c0.67,0,1.32,0.19,1.88,0.56c0.57,0.38,1.01,0.92,1.27,1.56
				C140.99,202.07,140.97,202.99,140.63,203.82z"/>
			<path class="spot" d="M46.33,182.96c-0.36,0.83-1.02,1.48-1.85,1.81c-0.41,0.16-0.83,0.24-1.26,0.24c-0.67,0-1.32-0.19-1.88-0.56
				c-0.57-0.38-1.01-0.92-1.27-1.56c-0.34-0.83-0.33-1.76,0.03-2.59c0.36-0.83,1.02-1.48,1.85-1.81c0.41-0.16,0.83-0.24,1.26-0.24
				c0.67,0,1.32,0.19,1.88,0.56c0.57,0.38,1.02,0.92,1.27,1.56C46.7,181.21,46.69,182.13,46.33,182.96z"/>
		</g>
	</g>
	
	<path class="cloud" d="M141.61,232.55l5.59-0.76c-1.57-4.32-2.42-8.98-2.42-13.86c0-22.47,18.22-40.69,40.69-40.69
		c9.53,0,18.28,3.28,25.21,8.76c8.67-25.32,32.66-43.53,60.92-43.53c35.24,0,63.85,28.31,64.37,63.43l1.61-0.22
		c34.47,0,62.42,27.94,62.42,62.42s-27.94,62.42-62.42,62.42H141.61c-27.06,0-48.99-21.93-48.99-48.99
		C92.62,254.46,114.56,232.55,141.61,232.55z"/>
</svg>