<?xml version="1.0" encoding="utf-8"?>
<!-- Generator: Adobe Illustrator 26.1.0, SVG Export Plug-In . SVG Version: 6.00 Build 0)  -->
<svg version="1.1" id="Capa_1" xmlns="http://www.w3.org/2000/svg" xmlns:xlink="http://www.w3.org/1999/xlink" x="0px" y="0px"
	 viewBox="0 0 400 400" style="enable-background:new 0 0 400 400;" xml:space="preserve">
<style type="text/css">
	.st0{opacity:0.65;}
	.st1{fill:#FFFFFF;}
</style>
<g>
	<g class="st0">
		<path class="st1" d="M232.93,77.63c-36.77,0-67.98,23.7-79.28,56.65c-9.02-7.14-20.41-11.4-32.8-11.4
			c-29.23,0-52.96,23.7-52.96,52.96c0,6.33,1.11,12.39,3.15,18.03l-7.27,0.99C28.54,194.86,0,223.4,0,258.61
			s28.54,63.76,63.76,63.76h255.01c44.87,0,81.23-36.36,81.23-81.23s-36.36-81.23-81.23-81.23l-2.09,0.29
			C316.02,114.48,278.79,77.63,232.93,77.63L232.93,77.63z"/>
	</g>
</g>
</svg>
