<?xml version="1.0" encoding="utf-8"?>
<!-- Generator: Adobe Illustrator 26.1.0, SVG Export Plug-In . SVG Version: 6.00 Build 0)  -->
<svg version="1.1" id="Capa_1" xmlns="http://www.w3.org/2000/svg" xmlns:xlink="http://www.w3.org/1999/xlink" x="0px" y="0px"
	 viewBox="0 0 400 400" style="enable-background:new 0 0 400 400;" xml:space="preserve">
<style type="text/css">
	.st0{opacity:0.5;fill:#FFFFFF;enable-background:new    ;}
	.st1{opacity:0.7;fill:#FFFFFF;enable-background:new    ;}
</style>
<g>
	<path class="st0" d="M306.74,209.46c0,27.02-21.91,48.93-48.93,48.93H62.1c-34.43,0-62.34-27.91-62.34-62.34
		s27.91-62.34,62.34-62.34l1.6,0.22c0.52-35.08,29.1-63.35,64.29-63.35c28.22,0,52.18,18.19,60.84,43.47
		c6.92-5.48,15.66-8.75,25.17-8.75c22.44,0,40.64,18.2,40.64,40.64c0,4.86-0.85,9.52-2.42,13.83l5.58,0.77
		C284.84,160.53,306.74,182.43,306.74,209.46z"/>
	<path class="st1" d="M142.2,231.56l5.58-0.77c-1.57-4.32-2.42-8.97-2.42-13.83c0-22.44,18.2-40.64,40.64-40.64
		c9.51,0,18.25,3.28,25.17,8.75c8.67-25.28,32.62-43.47,60.84-43.47c35.2,0,63.77,28.28,64.29,63.35l1.6-0.22
		c34.43,0,62.34,27.91,62.34,62.34s-27.89,62.35-62.32,62.35H142.2c-27.02,0-48.93-21.91-48.93-48.93
		C93.28,253.47,115.18,231.56,142.2,231.56z"/>
</g>
</svg>
