<?xml version="1.0" encoding="utf-8"?>
<!-- Generator: Adobe Illustrator 26.1.0, SVG Export Plug-In . SVG Version: 6.00 Build 0)  -->
<svg version="1.1" id="Capa_1" xmlns="http://www.w3.org/2000/svg" xmlns:xlink="http://www.w3.org/1999/xlink" x="0px" y="0px"
	 viewBox="0 0 400 400" style="enable-background:new 0 0 400 400;" xml:space="preserve">
<style type="text/css">
	.st0{opacity:0.9;fill:#FFFFFF;enable-background:new    ;}
	.st1{fill:#FFFFFF;}
</style>
<path class="st0" d="M306.48,138.88c0,27.02-21.91,48.93-48.93,48.93H61.84c-34.43,0-62.34-27.91-62.34-62.34
	s27.91-62.34,62.34-62.34l1.6,0.22C63.96,28.27,92.54,0,127.73,0c28.22,0,52.18,18.19,60.84,43.47c6.92-5.48,15.66-8.75,25.17-8.75
	c22.44,0,40.64,18.2,40.64,40.64c0,4.86-0.85,9.52-2.42,13.83l5.58,0.77C284.58,89.95,306.48,111.85,306.48,138.88z"/>
<path class="st1" d="M141.94,160.98l5.58-0.77c-1.57-4.32-2.42-8.97-2.42-13.83c0-22.44,18.2-40.64,40.64-40.64
	c9.51,0,18.25,3.28,25.17,8.75c8.67-25.28,32.62-43.47,60.84-43.47c35.2,0,63.77,28.28,64.29,63.35l1.6-0.22
	c34.43,0,62.34,27.91,62.34,62.34s-27.89,62.35-62.32,62.35H141.94c-27.02,0-48.93-21.91-48.93-48.93
	C93.02,182.89,114.92,160.98,141.94,160.98z"/>
<g>
	<g>
		<path class="st1" d="M127.67,351.1c-0.7,0-1.4-0.13-2.08-0.41c-2.81-1.15-4.15-4.37-3-7.18l2.66-6.48c1.15-2.81,4.37-4.15,7.18-3
			s4.15,4.37,3,7.18l-2.66,6.48C131.88,349.82,129.83,351.1,127.67,351.1z"/>
	</g>
	<g>
		<path class="st1" d="M140.92,318.79c-0.7,0-1.4-0.13-2.09-0.41c-2.81-1.15-4.15-4.37-3-7.18l1.77-4.31c1.15-2.81,4.37-4.15,7.18-3
			s4.15,4.37,3,7.18l-1.77,4.31C145.14,317.5,143.09,318.79,140.92,318.79z"/>
	</g>
	<g>
		<path class="st1" d="M153.29,288.64c-0.7,0-1.4-0.13-2.09-0.41c-2.81-1.15-4.15-4.37-3-7.18l6.18-15.07
			c1.15-2.81,4.37-4.15,7.18-3s4.15,4.37,3,7.18l-6.18,15.07C157.51,287.35,155.45,288.64,153.29,288.64z M170.07,247.73
			c-0.7,0-1.4-0.13-2.09-0.41c-2.81-1.15-4.15-4.37-3-7.18l1.77-4.31c1.15-2.81,4.37-4.15,7.18-3s4.15,4.37,3,7.18l-1.77,4.31
			C174.29,246.44,172.24,247.73,170.07,247.73z M182.44,217.58c-0.7,0-1.4-0.13-2.09-0.41c-2.81-1.15-4.15-4.37-3-7.18l6.18-15.07
			c1.15-2.81,4.37-4.15,7.18-3s4.15,4.37,3,7.18l-6.18,15.07C186.65,216.3,184.6,217.58,182.44,217.58z M199.22,176.67
			c-0.7,0-1.4-0.13-2.09-0.41c-2.81-1.15-4.15-4.37-3-7.18l1.77-4.31c1.15-2.81,4.37-4.15,7.18-3s4.15,4.37,3,7.18l-1.77,4.31
			C203.44,175.38,201.38,176.67,199.22,176.67z"/>
	</g>
	<g>
		<path class="st1" d="M211.58,146.53c-0.7,0-1.4-0.13-2.08-0.41c-2.81-1.15-4.15-4.37-3-7.18l2.66-6.48c1.15-2.81,4.37-4.15,7.18-3
			s4.15,4.37,3,7.18l-2.66,6.48C215.8,145.24,213.75,146.53,211.58,146.53z"/>
	</g>
</g>
<g>
	<g>
		<path class="st1" d="M180.54,342.53c-0.7,0-1.4-0.13-2.09-0.41c-2.81-1.15-4.15-4.37-3-7.18l2.66-6.48c1.15-2.81,4.37-4.15,7.18-3
			s4.15,4.37,3,7.18l-2.66,6.48C184.76,341.24,182.71,342.53,180.54,342.53z"/>
	</g>
	<g>
		<path class="st1" d="M193.8,310.21c-0.7,0-1.4-0.13-2.09-0.41c-2.81-1.15-4.15-4.37-3-7.18l1.77-4.31c1.15-2.81,4.37-4.15,7.18-3
			s4.15,4.37,3,7.18l-1.77,4.31C198.02,308.93,195.96,310.21,193.8,310.21z"/>
	</g>
	<g>
		<path class="st1" d="M206.16,280.07c-0.7,0-1.4-0.13-2.09-0.41c-2.81-1.15-4.15-4.37-3-7.18l6.18-15.07
			c1.15-2.81,4.37-4.15,7.18-3s4.15,4.37,3,7.18l-6.18,15.07C210.38,278.78,208.33,280.07,206.16,280.07z M222.95,239.15
			c-0.7,0-1.4-0.13-2.08-0.41c-2.81-1.15-4.15-4.37-3-7.18l1.77-4.31c1.15-2.81,4.37-4.15,7.18-3s4.15,4.37,3,7.18l-1.77,4.31
			C227.17,237.87,225.11,239.15,222.95,239.15z M235.31,209.01c-0.7,0-1.4-0.13-2.08-0.41c-2.81-1.15-4.15-4.37-3-7.18l6.18-15.07
			c1.15-2.81,4.37-4.15,7.18-3s4.15,4.37,3,7.18l-6.18,15.07C239.53,207.72,237.48,209.01,235.31,209.01z M252.1,168.1
			c-0.7,0-1.4-0.13-2.08-0.41c-2.81-1.15-4.15-4.37-3-7.18l1.77-4.31c1.15-2.81,4.37-4.15,7.18-3s4.15,4.37,3,7.18l-1.77,4.31
			C256.31,166.81,254.26,168.1,252.1,168.1z"/>
	</g>
	<g>
		<path class="st1" d="M264.46,137.95c-0.7,0-1.4-0.13-2.08-0.41c-2.81-1.15-4.15-4.37-3-7.18l2.66-6.48c1.15-2.81,4.37-4.15,7.18-3
			s4.15,4.37,3,7.18l-2.66,6.48C268.68,136.67,266.63,137.95,264.46,137.95z"/>
	</g>
</g>
<g>
	<g>
		<path class="st1" d="M212.17,385.76c-0.7,0-1.4-0.13-2.09-0.41c-2.81-1.15-4.15-4.37-3-7.18l2.66-6.48c1.15-2.81,4.37-4.16,7.18-3
			c2.81,1.15,4.15,4.37,3,7.18l-2.66,6.48C216.38,384.48,214.33,385.76,212.17,385.76z"/>
	</g>
	<g>
		<path class="st1" d="M225.42,353.45c-0.7,0-1.4-0.13-2.08-0.41c-2.81-1.15-4.15-4.37-3-7.18l1.77-4.31c1.15-2.81,4.37-4.15,7.18-3
			s4.15,4.37,3,7.18l-1.77,4.31C229.64,352.16,227.59,353.45,225.42,353.45z"/>
	</g>
	<g>
		<path class="st1" d="M237.79,323.3c-0.7,0-1.4-0.13-2.08-0.41c-2.81-1.15-4.15-4.37-3-7.18l6.18-15.07c1.15-2.81,4.37-4.15,7.18-3
			s4.15,4.37,3,7.18l-6.18,15.07C242.01,322.02,239.95,323.3,237.79,323.3z M254.57,282.39c-0.7,0-1.4-0.13-2.08-0.41
			c-2.81-1.15-4.15-4.37-3-7.18l1.77-4.31c1.15-2.81,4.37-4.15,7.18-3s4.15,4.37,3,7.18l-1.77,4.31
			C258.79,281.11,256.74,282.39,254.57,282.39z M266.94,252.25c-0.7,0-1.4-0.13-2.08-0.41c-2.81-1.15-4.15-4.37-3-7.18l6.18-15.07
			c1.15-2.81,4.37-4.15,7.18-3s4.15,4.37,3,7.18l-6.18,15.07C271.15,250.96,269.1,252.25,266.94,252.25z M283.72,211.33
			c-0.7,0-1.4-0.13-2.08-0.41c-2.81-1.15-4.15-4.37-3-7.18l1.77-4.31c1.15-2.81,4.37-4.15,7.18-3s4.15,4.37,3,7.18l-1.77,4.31
			C287.94,210.05,285.88,211.33,283.72,211.33z"/>
	</g>
	<g>
		<path class="st1" d="M296.08,181.19c-0.7,0-1.4-0.13-2.08-0.41c-2.81-1.15-4.15-4.37-3-7.18l2.66-6.48c1.15-2.81,4.37-4.15,7.18-3
			s4.15,4.37,3,7.18l-2.66,6.48C300.3,179.9,298.25,181.19,296.08,181.19z"/>
	</g>
</g>
<g>
	<g>
		<path class="st1" d="M265.04,377.19c-0.7,0-1.4-0.13-2.08-0.41c-2.81-1.15-4.15-4.37-3-7.18l2.66-6.48c1.15-2.81,4.37-4.15,7.18-3
			s4.15,4.37,3,7.18l-2.66,6.48C269.26,375.9,267.21,377.19,265.04,377.19z"/>
	</g>
	<g>
		<path class="st1" d="M278.3,344.88c-0.7,0-1.4-0.13-2.08-0.41c-2.81-1.15-4.15-4.37-3-7.18l1.77-4.31c1.15-2.81,4.37-4.15,7.18-3
			s4.15,4.37,3,7.18l-1.77,4.31C282.52,343.59,280.46,344.88,278.3,344.88z"/>
	</g>
	<g>
		<path class="st1" d="M290.66,314.73c-0.7,0-1.4-0.13-2.08-0.41c-2.81-1.15-4.15-4.37-3-7.18l6.18-15.07
			c1.15-2.81,4.37-4.15,7.18-3s4.15,4.37,3,7.18l-6.18,15.07C294.88,313.44,292.83,314.73,290.66,314.73z M307.45,273.82
			c-0.7,0-1.4-0.13-2.08-0.41c-2.81-1.15-4.15-4.37-3-7.18l1.77-4.31c1.15-2.81,4.37-4.15,7.18-3s4.15,4.37,3,7.18l-1.77,4.31
			C311.66,272.53,309.61,273.82,307.45,273.82z M319.81,243.67c-0.7,0-1.4-0.13-2.09-0.41c-2.81-1.15-4.15-4.37-3-7.18l6.18-15.07
			c1.15-2.81,4.37-4.15,7.18-3s4.15,4.37,3,7.18l-6.18,15.07C324.03,242.39,321.98,243.67,319.81,243.67z M336.6,202.76
			c-0.7,0-1.4-0.13-2.09-0.41c-2.81-1.15-4.15-4.37-3-7.18l1.77-4.31c1.15-2.81,4.37-4.15,7.18-3s4.15,4.37,3,7.18l-1.77,4.31
			C340.81,201.47,338.76,202.76,336.6,202.76z"/>
	</g>
	<g>
		<path class="st1" d="M348.96,172.61c-0.7,0-1.4-0.13-2.08-0.41c-2.81-1.15-4.15-4.37-3-7.18l2.66-6.48c1.15-2.81,4.37-4.15,7.18-3
			s4.15,4.37,3,7.18l-2.66,6.48C353.18,171.33,351.13,172.61,348.96,172.61z"/>
	</g>
</g>
</svg>
