<?xml version="1.0" encoding="utf-8"?>
<!-- Generator: Adobe Illustrator 26.1.0, SVG Export Plug-In . SVG Version: 6.00 Build 0)  -->
<svg version="1.1" id="Capa_1" xmlns="http://www.w3.org/2000/svg" xmlns:xlink="http://www.w3.org/1999/xlink" x="0px" y="0px"
	 viewBox="0 0 400 400" style="enable-background:new 0 0 400 400;" xml:space="preserve">
<style type="text/css">
	.st0{opacity:0.5;fill:#FFFFFF;enable-background:new    ;}
	.st1{opacity:0.7;fill:#FFFFFF;enable-background:new    ;}
	.st2{opacity:0.5;}
	.st3{fill:#C8EEFC;}
</style>
<g>
	<g>
		<g>
			<path class="st0" d="M306.74,174.7c0,27.02-21.91,48.93-48.93,48.93H62.1c-34.43,0-62.34-27.91-62.34-62.34
				S27.67,98.95,62.1,98.95l1.6,0.22c0.52-35.08,29.1-63.35,64.29-63.35c28.22,0,52.18,18.19,60.84,43.47
				c6.92-5.48,15.66-8.75,25.17-8.75c22.44,0,40.64,18.2,40.64,40.64c0,4.86-0.85,9.52-2.42,13.83l5.58,0.77
				C284.84,125.77,306.74,147.67,306.74,174.7z"/>
			<path class="st1" d="M142.2,196.8l5.58-0.77c-1.57-4.32-2.42-8.97-2.42-13.83c0-22.44,18.2-40.64,40.64-40.64
				c9.51,0,18.25,3.28,25.17,8.75c8.67-25.28,32.62-43.47,60.84-43.47c35.2,0,63.77,28.28,64.29,63.35l1.6-0.22
				c34.43,0,62.34,27.91,62.34,62.34s-27.89,62.35-62.32,62.35H142.2c-27.02,0-48.93-21.91-48.93-48.93
				C93.28,218.71,115.18,196.8,142.2,196.8z"/>
		</g>
	</g>
	<g class="st2">
		<g>
			<g>
				<path class="st3" d="M159.64,327.08c-1.03-0.02-2.06-0.23-3.07-0.66c-4.11-1.77-5.99-6.55-4.22-10.66l2.73-6.3
					c1.77-4.11,6.55-5.99,10.66-4.22c4.11,1.77,5.99,6.55,4.22,10.66l-2.73,6.3C165.89,325.3,162.84,327.14,159.64,327.08z"/>
			</g>
			<path class="st3" d="M178.7,283.03c-1.03-0.02-2.06-0.23-3.07-0.66c-4.11-1.77-5.99-6.55-4.22-10.66l9.52-22.02
				c1.77-4.11,6.55-5.99,10.66-4.22c4.11,1.77,5.99,6.55,4.22,10.66l-9.52,22.02C184.95,281.24,181.88,283.09,178.7,283.03z"/>
			<path class="st3" d="M204.54,223.25c-1.03-0.02-2.06-0.23-3.07-0.66c-4.11-1.77-5.99-6.55-4.22-10.66l2.73-6.3
				c1.77-4.11,6.55-5.99,10.66-4.22c4.11,1.77,5.99,6.55,4.22,10.66l-2.73,6.3C210.79,221.47,207.74,223.31,204.54,223.25z"/>
		</g>
		<g>
			<g>
				<path class="st3" d="M245.45,364.18c-1.03-0.02-2.06-0.23-3.07-0.66c-4.11-1.77-5.99-6.55-4.22-10.66l2.73-6.3
					c1.77-4.11,6.55-5.99,10.66-4.22s5.99,6.55,4.22,10.66l-2.73,6.3C251.7,362.4,248.65,364.24,245.45,364.18z"/>
			</g>
			<path class="st3" d="M264.51,320.12c-1.03-0.02-2.06-0.23-3.07-0.66c-4.11-1.77-5.99-6.55-4.22-10.66l9.52-22.02
				c1.77-4.11,6.55-5.99,10.66-4.22c4.11,1.77,5.99,6.55,4.22,10.66l-9.52,22.02C270.76,318.34,267.69,320.18,264.51,320.12z"/>
			<path class="st3" d="M290.36,260.35c-1.03-0.02-2.06-0.23-3.07-0.66c-4.11-1.77-5.99-6.55-4.22-10.66l2.73-6.3
				c1.77-4.11,6.55-5.99,10.66-4.22s5.99,6.55,4.22,10.66l-2.73,6.3C296.61,258.56,293.55,260.41,290.36,260.35z"/>
		</g>
		<g>
			<g>
				<path class="st3" d="M211.84,324.13c-1.03-0.02-2.06-0.23-3.07-0.66c-4.11-1.77-5.99-6.55-4.22-10.66l2.73-6.3
					c1.77-4.11,6.55-5.99,10.66-4.22s5.99,6.55,4.22,10.66l-2.73,6.3C218.09,322.35,215.04,324.19,211.84,324.13z"/>
			</g>
			<path class="st3" d="M230.9,280.07c-1.03-0.02-2.06-0.23-3.07-0.66c-4.11-1.77-5.99-6.55-4.22-10.66l9.52-22.02
				c1.77-4.11,6.55-5.99,10.66-4.22c4.11,1.77,5.99,6.55,4.22,10.66l-9.52,22.02C237.15,278.29,234.08,280.13,230.9,280.07z"/>
		</g>
		<g>
			<g>
				<path class="st3" d="M304.99,346.58c-1.03-0.02-2.06-0.23-3.07-0.66c-4.11-1.77-5.99-6.55-4.22-10.66l2.73-6.3
					c1.77-4.11,6.55-5.99,10.66-4.22c4.11,1.77,5.99,6.55,4.22,10.66l-2.73,6.3C311.24,344.8,308.18,346.64,304.99,346.58z"/>
			</g>
			<path class="st3" d="M324.04,302.53c-1.03-0.02-2.06-0.23-3.07-0.66c-4.11-1.77-5.99-6.55-4.22-10.66l9.52-22.02
				c1.77-4.11,6.55-5.99,10.66-4.22c4.11,1.77,5.99,6.55,4.22,10.66l-9.52,22.02C330.29,300.74,327.22,302.59,324.04,302.53z"/>
		</g>
	</g>
</g>
</svg>
