<?xml version="1.0" encoding="utf-8"?>
<!-- Generator: Adobe Illustrator 26.1.0, SVG Export Plug-In . SVG Version: 6.00 Build 0)  -->
<svg version="1.1" id="Capa_1" xmlns="http://www.w3.org/2000/svg" xmlns:xlink="http://www.w3.org/1999/xlink" x="0px" y="0px"
	 viewBox="0 0 400 400" style="enable-background:new 0 0 400 400;" xml:space="preserve">
<style type="text/css">
	.cloudBack{
		opacity:0.5;
		fill:#FFFFFF;
		enable-background:new;
		animation: cloud ease-in-out 10s alternate infinite;

	}
	@keyframes cloud {
  		0% {
    		transform: translate(0);
  		}
 		100% {
    		transform: translate(20%, 10%);
		}
	}
	
	.cloudFront{
		opacity:0.7;
		fill:#FFFFFF;
		enable-background:new;
	}

	.rain{
		fill:#C8EEFC;
	}

	.dropOneOne,
	.dropTwoTwo,
	.dropThreeOne,
	.dropFourTwo{
		animation: drop 1s ease-in 0s infinite;
	}

	.dropOneTwo,
	.dropTwoOne,
	.dropThreeTwo,
	.dropFourOne{
		animation: drop2 1s ease-in 0.5s infinite;
	}

	@keyframes drop {
  		0% {
			transform: translate(0, -4%);
    		opacity:0;
  		}
		30% {
			opacity:0.8;
		}
 		100% {
    		opacity:0;
			transform: translate(0, 14%);
		}
	}

	@keyframes drop2 {
  		0% {
			transform: translate(0, -4%);
    		opacity:0;
  		}
		25% {
			opacity:0.8;
		}
 		100% {
    		opacity:0;
			transform: translate(0, 14%);
		}
	}
</style>

<path class="cloudBack" d="M306.8,186c0,27-21.9,48.9-48.9,48.9H62.1C27.7,235-0.2,207-0.2,172.6s27.9-62.3,62.3-62.3l1.6,0.2
		c0.5-35.1,29.1-63.3,64.3-63.3c28.2,0,52.2,18.2,60.8,43.5c6.9-5.5,15.7-8.8,25.2-8.8c22.4,0,40.6,18.2,40.6,40.6
		c0,4.9-0.9,9.5-2.4,13.8l5.6,0.8C284.9,137.1,306.8,159,306.8,186z"/>

<path class="cloudFront" d="M142.2,207l5.6-0.8c-1.6-4.3-2.4-9-2.4-13.8c0-22.4,18.2-40.6,40.6-40.6c9.5,0,18.2,3.3,25.2,8.8
	c8.7-25.3,32.6-43.5,60.8-43.5c35.2,0,63.8,28.3,64.3,63.3l1.6-0.2c34.4,0,62.3,27.9,62.3,62.3s-27.9,62.3-62.3,62.3H142.2
	c-27,0-48.9-21.9-48.9-48.9C93.3,228.9,115.2,207,142.2,207z"/>


<g id="rainG1">
	<path class="rain dropOneOne" d="M315.3,352.9c-5,0-9-4-9-9v-22.7c0-5,4-9,9-9s9,4,9,9v22.7C324.3,348.9,320.2,352.9,315.3,352.9z"/>
	<path class="rain dropOneTwo" d="M315.3,338.2c-5,0-9-4-9-9v-8c0-5,4-9,9-9s9,4,9,9v8C324.3,334.2,320.2,338.2,315.3,338.2z"/>
</g>
<g id="rainG2">
	<path class="rain dropTwoOne" d="M270.5,352.9c-5,0-9-4-9-9v-22.7c0-5,4-9,9-9s9,4,9,9v22.7C279.5,348.9,275.5,352.9,270.5,352.9z"/>
	<path class="rain dropTwoTwo" d="M270.5,338.2c-5,0-9-4-9-9v-8c0-5,4-9,9-9s9,4,9,9v8C279.5,334.2,275.5,338.2,270.5,338.2z"/>
</g>
<g id="rainG3">
	<path class="rain dropThreeOne" d="M225.8,352.9c-5,0-9-4-9-9v-22.7c0-5,4-9,9-9s9,4,9,9v22.7C234.8,348.9,230.8,352.9,225.8,352.9z"/>
	<path class="rain dropThreeTwo" d="M225.8,338.2c-5,0-9-4-9-9v-8c0-5,4-9,9-9s9,4,9,9v8C234.8,334.2,230.8,338.2,225.8,338.2z"/>
</g>
<g id="rainG4">
	<path class="rain dropFourOne" d="M181,352.9c-5,0-9-4-9-9v-22.7c0-5,4-9,9-9s9,4,9,9v22.7C190,348.9,186,352.9,181,352.9z"/>
	<path class="rain dropFourTwo" d="M181,338.2c-5,0-9-4-9-9v-8c0-5,4-9,9-9s9,4,9,9v8C190,334.2,186,338.2,181,338.2z"/>
</g>
</svg>
