<?xml version="1.0" encoding="utf-8"?>
<!-- Generator: Adobe Illustrator 26.1.0, SVG Export Plug-In . SVG Version: 6.00 Build 0)  -->
<svg version="1.1" id="Capa_1" xmlns="http://www.w3.org/2000/svg" xmlns:xlink="http://www.w3.org/1999/xlink" x="0px" y="0px"
	 viewBox="0 0 400 400" style="enable-background:new 0 0 400 400;" xml:space="preserve">
<style type="text/css">
	.st0{opacity:0.7;fill:#FFFFFF;enable-background:new    ;}
	.st1{opacity:0.5;}
	.st2{fill:#C8EEFC;}
	.st3{opacity:0.15;fill:#FFFFFF;enable-background:new    ;}
	.st4{opacity:0.35;fill:#FFFFFF;enable-background:new    ;}
	.st5{opacity:0.8;fill:#FFFFFF;enable-background:new    ;}
	.st6{opacity:0.3;fill:#EDB55D;enable-background:new    ;}
</style>
<g>
	<g>
		<g>
			<g>
				<path class="st0" d="M142.14,206.1l5.58-0.77c-1.57-4.32-2.42-8.97-2.42-13.83c0-22.44,18.2-40.64,40.64-40.64
					c9.51,0,18.25,3.28,25.17,8.75c8.67-25.28,32.62-43.47,60.84-43.47c35.2,0,63.77,28.28,64.29,63.35l1.6-0.22
					c34.43,0,62.34,27.91,62.34,62.34s-27.89,62.35-62.32,62.35H142.14c-27.02,0-48.93-21.91-48.93-48.93
					C93.22,228.01,115.12,206.1,142.14,206.1z"/>
			</g>
		</g>
		<g class="st1">
			<g>
				<g>
					<path class="st2" d="M159.58,336.38c-1.03-0.02-2.06-0.23-3.07-0.66c-4.11-1.77-5.99-6.55-4.22-10.66l2.73-6.3
						c1.77-4.11,6.55-5.99,10.66-4.22s5.99,6.55,4.22,10.66l-2.73,6.3C165.83,334.6,162.78,336.44,159.58,336.38z"/>
				</g>
				<path class="st2" d="M178.64,292.33c-1.03-0.02-2.06-0.23-3.07-0.66c-4.11-1.77-5.99-6.55-4.22-10.66l9.52-22.02
					c1.77-4.11,6.55-5.99,10.66-4.22c4.11,1.77,5.99,6.55,4.22,10.66l-9.52,22.02C184.89,290.54,181.82,292.39,178.64,292.33z"/>
				<path class="st2" d="M204.48,232.55c-1.03-0.02-2.06-0.23-3.07-0.66c-4.11-1.77-5.99-6.55-4.22-10.66l2.73-6.3
					c1.77-4.11,6.55-5.99,10.66-4.22s5.99,6.55,4.22,10.66l-2.73,6.3C210.73,230.77,207.68,232.61,204.48,232.55z"/>
			</g>
			<g>
				<g>
					<path class="st2" d="M245.39,373.48c-1.03-0.02-2.06-0.23-3.07-0.66c-4.11-1.77-5.99-6.55-4.22-10.66l2.73-6.3
						c1.77-4.11,6.55-5.99,10.66-4.22s5.99,6.55,4.22,10.66l-2.73,6.3C251.64,371.7,248.59,373.54,245.39,373.48z"/>
				</g>
				<path class="st2" d="M264.45,329.42c-1.03-0.02-2.06-0.23-3.07-0.66c-4.11-1.77-5.99-6.55-4.22-10.66l9.52-22.02
					c1.77-4.11,6.55-5.99,10.66-4.22c4.11,1.77,5.99,6.55,4.22,10.66l-9.52,22.02C270.7,327.64,267.63,329.48,264.45,329.42z"/>
				<path class="st2" d="M290.3,269.65c-1.03-0.02-2.06-0.23-3.07-0.66c-4.11-1.77-5.99-6.55-4.22-10.66l2.73-6.3
					c1.77-4.11,6.55-5.99,10.66-4.22s5.99,6.55,4.22,10.66l-2.73,6.3C296.55,267.86,293.49,269.71,290.3,269.65z"/>
			</g>
			<g>
				<g>
					<path class="st2" d="M211.78,333.43c-1.03-0.02-2.06-0.23-3.07-0.66c-4.11-1.77-5.99-6.55-4.22-10.66l2.73-6.3
						c1.77-4.11,6.55-5.99,10.66-4.22s5.99,6.55,4.22,10.66l-2.73,6.3C218.03,331.65,214.98,333.49,211.78,333.43z"/>
				</g>
				<path class="st2" d="M230.84,289.37c-1.03-0.02-2.06-0.23-3.07-0.66c-4.11-1.77-5.99-6.55-4.22-10.66l9.52-22.02
					c1.77-4.11,6.55-5.99,10.66-4.22s5.99,6.55,4.22,10.66l-9.52,22.02C237.09,287.59,234.02,289.43,230.84,289.37z"/>
			</g>
			<g>
				<g>
					<path class="st2" d="M304.93,355.88c-1.03-0.02-2.06-0.23-3.07-0.66c-4.11-1.77-5.99-6.55-4.22-10.66l2.73-6.3
						c1.77-4.11,6.55-5.99,10.66-4.22c4.11,1.77,5.99,6.55,4.22,10.66l-2.73,6.3C311.18,354.1,308.12,355.94,304.93,355.88z"/>
				</g>
				<path class="st2" d="M323.98,311.83c-1.03-0.02-2.06-0.23-3.07-0.66c-4.11-1.77-5.99-6.55-4.22-10.66l9.52-22.02
					c1.77-4.11,6.55-5.99,10.66-4.22c4.11,1.77,5.99,6.55,4.22,10.66l-9.52,22.02C330.23,310.04,327.16,311.89,323.98,311.83z"/>
			</g>
		</g>
	</g>
	<g>
		<path class="st3" d="M261.05,215.99c-14.27,33.43-40.7,59.29-74.42,72.83c-16.25,6.55-33.3,9.86-50.65,9.86
			c-26.86,0-52.92-7.88-75.4-22.78c-22.98-15.24-40.57-36.89-50.89-62.6c-13.53-33.73-13.15-70.72,1.12-104.11
			c14.27-33.43,40.7-59.28,74.42-72.81c16.25-6.55,33.3-9.86,50.65-9.86c26.86,0,52.92,7.88,75.4,22.78
			c22.99,15.26,40.58,36.89,50.89,62.58C275.7,145.59,275.31,182.58,261.05,215.99z"/>
		<path class="st4" d="M234.06,204.48c-11.19,26.22-31.92,46.51-58.38,57.12c-12.75,5.14-26.12,7.73-39.73,7.73
			c-21.07,0-41.51-6.18-59.14-17.87c-18.02-11.96-31.82-28.94-39.92-49.1c-10.61-26.46-10.31-55.47,0.88-81.66
			c11.19-26.22,31.92-46.49,58.38-57.11c12.75-5.14,26.12-7.73,39.73-7.73c21.07,0,41.51,6.18,59.14,17.87
			c18.03,11.97,31.83,28.94,39.92,49.09C245.56,149.26,245.26,178.27,234.06,204.48z"/>
		<path class="st5" d="M174.54,104.53c-11.52-7.64-24.87-11.67-38.63-11.67c-8.89,0-17.63,1.7-25.95,5.05
			c-17.28,6.94-30.82,20.19-38.14,37.31c-7.31,17.12-7.51,36.07-0.58,53.36c5.28,13.17,14.31,24.27,26.08,32.07
			c11.52,7.64,24.88,11.67,38.63,11.67c8.89,0,17.63-1.7,25.95-5.05c17.28-6.94,30.82-20.19,38.14-37.33
			c7.31-17.12,7.51-36.07,0.58-53.36C195.34,123.43,186.33,112.35,174.54,104.53z"/>
		<path class="st6" d="M174.54,104.53c-11.52-7.64-24.87-11.67-38.63-11.67c-8.89,0-17.63,1.7-25.95,5.05
			c-17.28,6.94-30.82,20.19-38.14,37.31c-7.31,17.12-7.51,36.07-0.58,53.36c5.28,13.17,14.31,24.27,26.08,32.07
			c11.52,7.64,24.88,11.67,38.63,11.67c8.89,0,17.63-1.7,25.95-5.05c17.28-6.94,30.82-20.19,38.14-37.33
			c7.31-17.12,7.51-36.07,0.58-53.36C195.34,123.43,186.33,112.35,174.54,104.53z"/>
	</g>
</g>
</svg>
