<?xml version="1.0" encoding="utf-8"?>
<!-- Generator: Adobe Illustrator 26.1.0, SVG Export Plug-In . SVG Version: 6.00 Build 0)  -->
<svg version="1.1" xmlns="http://www.w3.org/2000/svg" xmlns:xlink="http://www.w3.org/1999/xlink" x="0px" y="0px"
	 viewBox="0 0 400 400" style="enable-background:new 0 0 400 400;" xml:space="preserve">
<style type="text/css">
	.cloud{
		opacity:0.7;
		fill:#FFFFFF;
		enable-background:new;
	}
	
	.lightOutside{
		opacity:0.15;
		fill:#FFFFFF;
		enable-background:new;
		animation: pulse1 3s alternate infinite;
	}
	@keyframes pulse1 {
  		0% {
    		opacity:0.10;
			fill:#FFFFFF;
  		}
 		100% {
    		opacity:0.15;
			fill:#FFFFFF;
		}
	}

	.lightInside{
		opacity:0.35;
		fill:#FFFFFF;
		enable-background:new;
		animation: pulse2 3s alternate infinite;
	}
	@keyframes pulse2 {
  		0% {
    		opacity:0.15;
			fill:#FFFFFF;
  		}
 		100% {
    		opacity:0.20;
			fill:#FFFFFF;
		}
	}

	.centerBase{
		opacity:0.8;
		fill:#FFFFFF;
		enable-background:new;
	}
	
	.center
		{opacity:0.3;
		fill:#EDB55D;
		enable-background:new;
		animation: pulse3 3s alternate infinite;
	}
	@keyframes pulse3 {
  		0% {
    		opacity:0.3;
			fill:#EDB55D;
  		}
 		100% {
    		opacity:0.5;
			fill:#EDB55D;
		}
	}

	.rain{
		fill:#C8EEFC;
	}

	.dropOneOne,
	.dropTwoTwo,
	.dropThreeOne,
	.dropFourTwo{
	animation: drop 1s ease-in 0s infinite;
	}

	.dropOneTwo,
	.dropTwoOne,
	.dropThreeTwo,
	.dropFourOne{
	animation: drop2 1s ease-in 0.5s infinite;
	}

	@keyframes drop {
  		0% {
			transform: translate(0, -4%);
    		opacity:0;
  		}
		30% {
			opacity:0.8;
		}
 		100% {
    		opacity:0;
			transform: translate(0, 14%);
		}
	}

	@keyframes drop2 {
  		0% {
			transform: translate(0, -4%);
    		opacity:0;
  		}
		25% {
			opacity:0.8;
		}
 		100% {
    		opacity:0;
			transform: translate(0, 14%);
		}
	}
</style>

<g id="sun">
	<path class="lightOutside" d="M261.1,214.9c-14.3,33.4-40.7,59.3-74.4,72.8c-16.2,6.5-33.3,9.9-50.7,9.9c-26.9,0-52.9-7.9-75.4-22.8
		c-23-15.2-40.6-36.9-50.9-62.6c-13.5-33.7-13.1-70.7,1.1-104.1c14.3-33.4,40.7-59.3,74.4-72.8c16.2-6.5,33.3-9.9,50.7-9.9
		c26.9,0,52.9,7.9,75.4,22.8c23,15.3,40.6,36.9,50.9,62.6C275.7,144.5,275.3,181.5,261.1,214.9z"/>
	<path class="lightInside" d="M234.1,203.4c-11.2,26.2-31.9,46.5-58.4,57.1c-12.8,5.1-26.1,7.7-39.7,7.7c-21.1,0-41.5-6.2-59.1-17.9
		c-18-12-31.8-28.9-39.9-49.1c-10.6-26.5-10.3-55.5,0.9-81.7c11.1-26.1,31.8-46.4,58.3-57c12.8-5.1,26.1-7.7,39.7-7.7
		c21.1,0,41.5,6.2,59.1,17.9c18,12,31.8,28.9,39.9,49.1C245.6,148.2,245.3,177.2,234.1,203.4z"/>
	<path class="centerBase" d="M174.5,103.4c-11.5-7.6-24.9-11.7-38.6-11.7c-8.9,0-17.6,1.7-26,5.1c-17.3,6.9-30.8,20.2-38.1,37.3
		c-7.3,17.1-7.5,36.1-0.6,53.4c5.3,13.2,14.3,24.3,26.1,32.1c11.5,7.6,24.9,11.7,38.6,11.7c8.9,0,17.6-1.7,25.9-5.1
		c17.3-6.9,30.8-20.2,38.1-37.3s7.5-36.1,0.6-53.4C195.3,122.3,186.3,111.3,174.5,103.4z"/>
	<path class="center" d="M174.5,103.4c-11.5-7.6-24.9-11.7-38.6-11.7c-8.9,0-17.6,1.7-26,5.1c-17.3,6.9-30.8,20.2-38.1,37.3
		c-7.3,17.1-7.5,36.1-0.6,53.4c5.3,13.2,14.3,24.3,26.1,32.1c11.5,7.6,24.9,11.7,38.6,11.7c8.9,0,17.6-1.7,25.9-5.1
		c17.3-6.9,30.8-20.2,38.1-37.3s7.5-36.1,0.6-53.4C195.3,122.3,186.3,111.3,174.5,103.4z"/>
</g>

<path class="cloud" d="M142.1,205l5.6-0.8c-1.6-4.3-2.4-9-2.4-13.8c0-22.4,18.2-40.6,40.6-40.6c9.5,0,18.2,3.3,25.2,8.8
c8.7-25.3,32.6-43.5,60.8-43.5c35.2,0,63.8,28.3,64.3,63.3l1.6-0.2c34.4,0,62.3,27.9,62.3,62.3s-27.9,62.3-62.3,62.3H142.1
c-27,0-48.9-21.9-48.9-48.9C93.2,226.9,115.1,205,142.1,205z"/>

<g id="rainG1">
	<path class="rain dropOneOne" d="M315.2,350.9c-5,0-9-4-9-9v-22.7c0-5,4-9,9-9s9,4,9,9v22.7C324.2,346.9,320.1,350.9,315.2,350.9z"/>
	<path class="rain dropOneTwo" d="M315.2,336.2c-5,0-9-4-9-9v-8c0-5,4-9,9-9s9,4,9,9v8C324.2,332.2,320.1,336.2,315.2,336.2z"/>
</g>
<g id="rainG2">
	<path class="rain dropTwoOne" d="M270.4,350.9c-5,0-9-4-9-9v-22.7c0-5,4-9,9-9s9,4,9,9v22.7C279.4,346.9,275.4,350.9,270.4,350.9z"/>
	<path class="rain dropTwoTwo" d="M270.4,336.2c-5,0-9-4-9-9v-8c0-5,4-9,9-9s9,4,9,9v8C279.4,332.2,275.4,336.2,270.4,336.2z"/>
</g>
<g id="rainG3">
	<path class="rain dropThreeOne" d="M225.7,350.9c-5,0-9-4-9-9v-22.7c0-5,4-9,9-9s9,4,9,9v22.7C234.7,346.9,230.7,350.9,225.7,350.9z"/>
	<path class="rain dropThreeTwo" d="M225.7,336.2c-5,0-9-4-9-9v-8c0-5,4-9,9-9s9,4,9,9v8C234.7,332.2,230.7,336.2,225.7,336.2z"/>
</g>
<g id="rainG4">
	<path class="rain dropFourOne" d="M180.9,350.9c-5,0-9-4-9-9v-22.7c0-5,4-9,9-9s9,4,9,9v22.7C189.9,346.9,185.9,350.9,180.9,350.9z"/>
	<path class="rain dropFourTwo" d="M180.9,336.2c-5,0-9-4-9-9v-8c0-5,4-9,9-9s9,4,9,9v8C189.9,332.2,185.9,336.2,180.9,336.2z"/>
</g>
</svg>