<?xml version="1.0" encoding="utf-8"?>
<!-- Generator: Adobe Illustrator 26.1.0, SVG Export Plug-In . SVG Version: 6.00 Build 0)  -->
<svg version="1.1" id="Capa_1" xmlns="http://www.w3.org/2000/svg" xmlns:xlink="http://www.w3.org/1999/xlink" x="0px" y="0px"
	 viewBox="0 0 400 400" style="enable-background:new 0 0 400 400;" xml:space="preserve">
<style type="text/css">
	.moonLight{
		opacity:0.2;
		fill:#FFFFFF;
		enable-background:new;
		animation: pulse1 4s alternate infinite;
	}
	@keyframes pulse1 {
  		0% {
    		opacity:0.05;
			fill:#FFFFFF;

  		}
 		100% {
    		opacity:0.2;
			fill:#FFFFFF;
		}
	}
	
	.moonBase{
		opacity:0.8;
		fill:#D7EBF5;
		enable-background:new;
		animation: pulse2 4s alternate infinite;

	}
	@keyframes pulse2 {
  		0% {
    		opacity:0.7;
			fill:#D7EBF5;

  		}
 		100% {
    		opacity:0.9;
			fill:#D7EBF5;
		}
	}

	#moon{
		transform-origin: center;
		transform-box: fill-box;
		animation: rotate 40s alternate infinite;
	}
	@keyframes rotate {
  		0% {
			transform:rotate(0);
  		}
 		100% {
			transform:rotate(360deg);
		}
	}

	.moonSpots{
		fill:#A2BFC9;
		opacity:0.4;
		animation: pulse3 4s alternate infinite;
	}
	@keyframes pulse3 {
  		0% {
    		opacity:0.3;
			fill:#A2BFC9;
  		}
 		100% {
    		opacity:0.5;
			fill:#A2BFC9;
		}
	}

	
	.cloud{
		opacity:0.7;
		fill:#FFFFFF;
		enable-background:new;
	}

	.rain{
		fill:#C8EEFC;
	}

	.dropOneOne,
	.dropTwoTwo,
	.dropThreeOne,
	.dropFourTwo{
	animation: drop 1s ease-in 0s infinite;
	}

	.dropOneTwo,
	.dropTwoOne,
	.dropThreeTwo,
	.dropFourOne{
	animation: drop2 1s ease-in 0.5s infinite;
	}

	@keyframes drop {
  		0% {
			transform: translate(0, -4%);
    		opacity:0;
  		}
		30% {
			opacity:0.8;
		}
 		100% {
    		opacity:0;
			transform: translate(0, 14%);
		}
	}

	@keyframes drop2 {
  		0% {
			transform: translate(0, -4%);
    		opacity:0;
  		}
		25% {
			opacity:0.8;
		}
 		100% {
    		opacity:0;
			transform: translate(0, 14%);
		}
	}

</style>
<g id="moon">
	<path class="moonLight" d="M261.2,189.5c-14.3,33.4-40.7,59.3-74.4,72.8c-16.3,6.6-33.3,9.9-50.6,9.9c-26.8,0-52.9-7.9-75.4-22.8
		c-23-15.2-40.6-36.9-50.9-62.6C-3.7,153-3.3,116.1,11,82.7C25.3,49.2,51.7,23.4,85.4,9.9C101.7,3.3,118.7,0,136,0
		c26.8,0,52.9,7.9,75.4,22.8c23,15.3,40.6,36.9,50.9,62.6C275.9,119.1,275.5,156.1,261.2,189.5z"/>
	<path class="moonBase" d="M239.8,180.3c-11.8,27.7-33.7,49.1-61.7,60.4c-13.5,5.4-27.6,8.2-42,8.2c-22.3,0-43.9-6.5-62.5-18.9
		c-19-12.6-33.6-30.6-42.2-51.9c-11.2-28-10.9-58.6,0.9-86.3c11.8-27.7,33.7-49.1,61.7-60.4c13.5-5.4,27.6-8.2,42-8.2
		c22.3,0,43.9,6.5,62.5,18.9c19.1,12.6,33.6,30.6,42.2,51.9C251.9,122,251.6,152.6,239.8,180.3z"/>
	<g class="moonSpots">
		<path class="spot" d="M109,142.8c-1.3,3-3.7,5.3-6.7,6.5c-1.5,0.6-3,0.9-4.5,0.9c-2.4,0-4.7-0.7-6.8-2c-2.1-1.4-3.6-3.3-4.6-5.6
			c-1.2-3-1.2-6.3,0.1-9.3c1.3-3,3.7-5.3,6.7-6.5c1.5-0.6,3-0.9,4.5-0.9c2.4,0,4.7,0.7,6.8,2c2.1,1.4,3.6,3.3,4.6,5.6
			C110.3,136.5,110.3,139.8,109,142.8z"/>
		<path class="spot" d="M213.3,110.3c-2,4.7-5.8,8.4-10.5,10.3c-2.3,0.9-4.7,1.4-7.2,1.4c-3.8,0-7.5-1.1-10.7-3.2
			c-3.3-2.2-5.7-5.2-7.2-8.9c-1.9-4.8-1.9-10,0.2-14.7c2-4.7,5.8-8.4,10.5-10.3c2.3-0.9,4.7-1.4,7.2-1.4c3.8,0,7.5,1.1,10.7,3.2
			c3.3,2.2,5.7,5.2,7.2,8.9C215.4,100.3,215.3,105.6,213.3,110.3z"/>
		<path class="spot" d="M239.6,180.3c3.5-8.2,5.9-16.6,7.4-25.1c-1.8-1.8-3.9-3.5-6.1-5c-6.5-4.3-14.1-6.6-21.9-6.6
			c-5,0-10,1-14.7,2.9c-9.8,3.9-17.5,11.4-21.6,21.1c-4.1,9.7-4.3,20.4-0.3,30.2c3,7.5,8.1,13.7,14.8,18.2c3.8,2.5,8,4.4,12.3,5.4
			C222.5,210.4,232.7,196.4,239.6,180.3z"/>
		<path class="spot" d="M45.4,99.4C55.2,95.5,62.9,88,67,78.3s4.3-20.4,0.3-30.2c-0.2-0.4-0.3-0.8-0.5-1.2
			c-15.1,11.6-27,26.9-34.7,44.9c-1.5,3.4-2.7,6.9-3.9,10.4c0.8,0,1.6,0.1,2.4,0.1C35.8,102.3,40.7,101.3,45.4,99.4z"/>
		<path class="spot" d="M139.7,212c-3,6.9-8.4,12.3-15.4,15.1c-3.4,1.4-6.9,2-10.5,2c-5.6,0-11-1.6-15.6-4.7
			c-4.8-3.2-8.4-7.6-10.5-13c-2.8-7-2.7-14.7,0.2-21.6c3-6.9,8.4-12.3,15.4-15.1c3.4-1.4,6.9-2,10.5-2c5.6,0,11,1.6,15.6,4.7
			c4.8,3.2,8.4,7.6,10.5,13C142.8,197.4,142.7,205.1,139.7,212z"/>
		<path class="spot" d="M157.7,150.7c-0.4,0.9-1.1,1.7-2.1,2c-0.5,0.2-0.9,0.3-1.4,0.3c-0.7,0-1.5-0.2-2.1-0.6
			c-0.6-0.4-1.1-1-1.4-1.7c-0.4-0.9-0.4-2,0-2.9c0.4-0.9,1.1-1.7,2.1-2c0.5-0.2,0.9-0.3,1.4-0.3c0.7,0,1.5,0.2,2.1,0.6
			c0.6,0.4,1.1,1,1.4,1.7C158.2,148.7,158.1,149.8,157.7,150.7z"/>
		<path class="spot" d="M52,127.3c-0.4,0.9-1.1,1.7-2.1,2c-0.5,0.2-0.9,0.3-1.4,0.3c-0.7,0-1.5-0.2-2.1-0.6c-0.6-0.4-1.1-1-1.4-1.7
			c-0.4-0.9-0.4-2,0-2.9c0.4-0.9,1.1-1.7,2.1-2c0.5-0.2,0.9-0.3,1.4-0.3c0.7,0,1.5,0.2,2.1,0.6c0.6,0.4,1.1,1,1.4,1.7
			C52.4,125.3,52.4,126.4,52,127.3z"/>
	</g>
</g>

<path class="cloud" d="M142.1,205l5.6-0.8c-1.6-4.3-2.4-9-2.4-13.8c0-22.4,18.2-40.6,40.6-40.6c9.5,0,18.2,3.3,25.2,8.8
	c8.7-25.3,32.6-43.5,60.8-43.5c35.2,0,63.8,28.3,64.3,63.3l1.6-0.2c34.4,0,62.3,27.9,62.3,62.3s-27.9,62.3-62.3,62.3H142.1
	c-27,0-48.9-21.9-48.9-48.9C93.2,226.9,115.1,205,142.1,205z"/>


<g id="rainG1">
	<path class="rain dropOneOne" d="M315.2,350.9c-5,0-9-4-9-9v-22.7c0-5,4-9,9-9s9,4,9,9v22.7C324.2,346.9,320.1,350.9,315.2,350.9z"/>
	<path class="rain dropOneTwo" d="M315.2,336.2c-5,0-9-4-9-9v-8c0-5,4-9,9-9s9,4,9,9v8C324.2,332.2,320.1,336.2,315.2,336.2z"/>
</g>
<g id="rainG2">
	<path class="rain dropTwoOne" d="M270.4,350.9c-5,0-9-4-9-9v-22.7c0-5,4-9,9-9s9,4,9,9v22.7C279.4,346.9,275.4,350.9,270.4,350.9z"/>
	<path class="rain dropTwoTwo" d="M270.4,336.2c-5,0-9-4-9-9v-8c0-5,4-9,9-9s9,4,9,9v8C279.4,332.2,275.4,336.2,270.4,336.2z"/>
</g>
<g id="rainG3">
	<path class="rain dropThreeOne" d="M225.7,350.9c-5,0-9-4-9-9v-22.7c0-5,4-9,9-9s9,4,9,9v22.7C234.7,346.9,230.7,350.9,225.7,350.9z"/>
	<path class="rain dropThreeTwo" d="M225.7,336.2c-5,0-9-4-9-9v-8c0-5,4-9,9-9s9,4,9,9v8C234.7,332.2,230.7,336.2,225.7,336.2z"/>
</g>
<g id="rainG4">
	<path class="rain dropFourOne" d="M180.9,350.9c-5,0-9-4-9-9v-22.7c0-5,4-9,9-9s9,4,9,9v22.7C189.9,346.9,185.9,350.9,180.9,350.9z"/>
	<path class="rain dropFourTwo" d="M180.9,336.2c-5,0-9-4-9-9v-8c0-5,4-9,9-9s9,4,9,9v8C189.9,332.2,185.9,336.2,180.9,336.2z"/>
</g>
</svg>
