<?xml version="1.0" encoding="utf-8"?>
<!-- Generator: Adobe Illustrator 26.1.0, SVG Export Plug-In . SVG Version: 6.00 Build 0)  -->
<svg version="1.1" id="Capa_1" xmlns="http://www.w3.org/2000/svg" xmlns:xlink="http://www.w3.org/1999/xlink" x="0px" y="0px"
	 viewBox="0 0 400 400" style="enable-background:new 0 0 400 400;" xml:space="preserve">
<style type="text/css">
	.st0{opacity:0.2;fill:#FFFFFF;enable-background:new    ;}
	.st1{opacity:0.8;fill:#D7EBF5;enable-background:new    ;}
	.st2{opacity:0.4;}
	.st3{fill:#A2BFC9;}
	.st4{opacity:0.7;fill:#FFFFFF;enable-background:new    ;}
	.st5{opacity:0.5;}
	.st6{fill:#C8EEFC;}
</style>
<g>
	<g>
		<path class="st0" d="M232.67,202.81c-12.72,29.79-36.28,52.85-66.34,64.92c-14.49,5.84-29.68,8.79-45.14,8.79
			c-23.93,0-47.17-7.02-67.21-20.31c-20.47-13.59-36.16-32.89-45.35-55.81c-12.07-30.06-11.72-63.03,1-92.8
			c12.72-29.79,36.28-52.84,66.34-64.9c14.49-5.84,29.68-8.79,45.14-8.79c23.93,0,47.17,7.02,67.21,20.31
			c20.5,13.6,36.17,32.88,45.36,55.78C245.73,140.06,245.38,173.03,232.67,202.81z"/>
		<g>
			<path class="st1" d="M213.58,194.67c-10.55,24.7-30.07,43.81-54.99,53.8c-12.01,4.84-24.6,7.28-37.42,7.28
				c-19.84,0-39.1-5.82-55.71-16.83c-16.97-11.27-29.98-27.26-37.6-46.25c-10-24.92-9.71-52.25,0.82-76.92
				c10.55-24.7,30.07-43.8,54.99-53.8c12.01-4.84,24.6-7.28,37.42-7.28c19.84,0,39.1,5.82,55.71,16.83
				c16.99,11.27,29.98,27.26,37.6,46.24C224.42,142.65,224.13,169.98,213.58,194.67z"/>
			<g class="st2">
				<path class="st3" d="M96.98,161.17c-1.14,2.67-3.26,4.74-5.95,5.82c-1.3,0.52-2.66,0.79-4.05,0.79c-2.14,0-4.23-0.63-6.02-1.82
					c-1.83-1.22-3.24-2.95-4.06-5c-1.08-2.69-1.05-5.65,0.09-8.32s3.26-4.73,5.95-5.82c1.3-0.52,2.66-0.79,4.05-0.79
					c2.14,0,4.23,0.63,6.02,1.82c1.84,1.22,3.24,2.95,4.06,5C98.15,155.56,98.12,158.52,96.98,161.17z"/>
				<path class="st3" d="M190,132.23c-1.81,4.22-5.13,7.48-9.38,9.18c-2.05,0.82-4.2,1.24-6.39,1.24c-3.39,0-6.68-1-9.51-2.87
					c-2.9-1.93-5.11-4.65-6.42-7.9c-1.7-4.25-1.66-8.92,0.14-13.13c1.81-4.22,5.13-7.47,9.38-9.18c2.05-0.82,4.2-1.24,6.39-1.24
					c3.39,0,6.68,1,9.51,2.87c2.9,1.93,5.12,4.65,6.42,7.89C191.85,123.35,191.79,128.02,190,132.23z"/>
				<path class="st3" d="M213.43,194.67c3.1-7.27,5.3-14.76,6.63-22.35c-1.64-1.64-3.44-3.12-5.4-4.42
					c-5.82-3.85-12.56-5.89-19.51-5.89c-4.49,0-8.9,0.86-13.1,2.54c-8.72,3.5-15.56,10.18-19.25,18.84
					c-3.69,8.64-3.79,18.2-0.3,26.93c2.67,6.65,7.22,12.25,13.16,16.19c3.39,2.25,7.1,3.88,10.99,4.84
					C198.15,221.46,207.3,209.01,213.43,194.67z"/>
				<path class="st3" d="M40.34,122.52c8.72-3.5,15.56-10.19,19.25-18.84s3.79-18.21,0.3-26.93c-0.14-0.36-0.3-0.7-0.44-1.05
					c-13.43,10.36-24.05,24.02-30.9,40.05c-1.3,3.05-2.45,6.13-3.44,9.25c0.71,0.04,1.42,0.07,2.14,0.07
					C31.72,125.06,36.13,124.21,40.34,122.52z"/>
				<path class="st3" d="M124.38,222.9c-2.64,6.17-7.52,10.96-13.75,13.46c-3,1.22-6.15,1.82-9.36,1.82
					c-4.97,0-9.77-1.46-13.92-4.21c-4.24-2.81-7.5-6.81-9.4-11.57c-2.5-6.23-2.43-13.06,0.21-19.24
					c2.64-6.17,7.52-10.95,13.75-13.46c3-1.22,6.15-1.82,9.36-1.82c4.97,0,9.77,1.46,13.92,4.21c4.24,2.82,7.5,6.81,9.4,11.56
					C127.09,209.89,127.02,216.73,124.38,222.9z"/>
				<path class="st3" d="M140.45,168.24c-0.36,0.83-1.02,1.48-1.85,1.81c-0.41,0.16-0.83,0.24-1.26,0.24
					c-0.67,0-1.32-0.19-1.88-0.56c-0.57-0.38-1.01-0.92-1.27-1.56c-0.34-0.83-0.33-1.76,0.03-2.59s1.02-1.48,1.85-1.81
					c0.41-0.16,0.83-0.24,1.26-0.24c0.67,0,1.32,0.19,1.88,0.56c0.57,0.38,1.01,0.92,1.27,1.56
					C140.81,166.49,140.79,167.41,140.45,168.24z"/>
				<path class="st3" d="M46.15,147.38c-0.36,0.83-1.02,1.48-1.85,1.81c-0.41,0.16-0.83,0.24-1.26,0.24c-0.67,0-1.32-0.19-1.88-0.56
					c-0.57-0.38-1.01-0.92-1.27-1.56c-0.34-0.83-0.33-1.76,0.03-2.59s1.02-1.48,1.85-1.81c0.41-0.16,0.83-0.24,1.26-0.24
					c0.67,0,1.32,0.19,1.88,0.56c0.57,0.38,1.02,0.92,1.27,1.56C46.52,145.63,46.51,146.55,46.15,147.38z"/>
			</g>
		</g>
	</g>
	<g>
		<g>
			<g>
				<g>
					<path class="st4" d="M142.14,198.71l5.58-0.77c-1.57-4.32-2.42-8.97-2.42-13.83c0-22.44,18.2-40.64,40.64-40.64
						c9.51,0,18.25,3.28,25.17,8.75c8.67-25.28,32.62-43.47,60.84-43.47c35.2,0,63.77,28.28,64.29,63.35l1.6-0.22
						c34.43,0,62.34,27.91,62.34,62.34s-27.89,62.35-62.32,62.35H142.14c-27.02,0-48.93-21.91-48.93-48.93
						C93.22,220.62,115.12,198.71,142.14,198.71z"/>
				</g>
			</g>
			<g class="st5">
				<g>
					<g>
						<path class="st6" d="M159.58,328.99c-1.03-0.02-2.06-0.23-3.07-0.66c-4.11-1.77-5.99-6.55-4.22-10.66l2.73-6.3
							c1.77-4.11,6.55-5.99,10.66-4.22s5.99,6.55,4.22,10.66l-2.73,6.3C165.83,327.21,162.78,329.05,159.58,328.99z"/>
					</g>
					<path class="st6" d="M178.64,284.94c-1.03-0.02-2.06-0.23-3.07-0.66c-4.11-1.77-5.99-6.55-4.22-10.66l9.52-22.02
						c1.77-4.11,6.55-5.99,10.66-4.22s5.99,6.55,4.22,10.66l-9.52,22.02C184.89,283.15,181.82,285,178.64,284.94z"/>
					<path class="st6" d="M204.48,225.16c-1.03-0.02-2.06-0.23-3.07-0.66c-4.11-1.77-5.99-6.55-4.22-10.66l2.73-6.3
						c1.77-4.11,6.55-5.99,10.66-4.22s5.99,6.55,4.22,10.66l-2.73,6.3C210.73,223.38,207.68,225.22,204.48,225.16z"/>
				</g>
				<g>
					<g>
						<path class="st6" d="M245.39,366.09c-1.03-0.02-2.06-0.23-3.07-0.66c-4.11-1.77-5.99-6.55-4.22-10.66l2.73-6.3
							c1.77-4.11,6.55-5.99,10.66-4.22s5.99,6.55,4.22,10.66l-2.73,6.3C251.64,364.31,248.59,366.15,245.39,366.09z"/>
					</g>
					<path class="st6" d="M264.45,322.03c-1.03-0.02-2.06-0.23-3.07-0.66c-4.11-1.77-5.99-6.55-4.22-10.66l9.52-22.02
						c1.77-4.11,6.55-5.99,10.66-4.22c4.11,1.77,5.99,6.55,4.22,10.66l-9.52,22.02C270.7,320.25,267.63,322.09,264.45,322.03z"/>
					<path class="st6" d="M290.3,262.26c-1.03-0.02-2.06-0.23-3.07-0.66c-4.11-1.77-5.99-6.55-4.22-10.66l2.73-6.3
						c1.77-4.11,6.55-5.99,10.66-4.22s5.99,6.55,4.22,10.66l-2.73,6.3C296.55,260.47,293.49,262.32,290.3,262.26z"/>
				</g>
				<g>
					<g>
						<path class="st6" d="M211.78,326.04c-1.03-0.02-2.06-0.23-3.07-0.66c-4.11-1.77-5.99-6.55-4.22-10.66l2.73-6.3
							c1.77-4.11,6.55-5.99,10.66-4.22s5.99,6.55,4.22,10.66l-2.73,6.3C218.03,324.26,214.98,326.1,211.78,326.04z"/>
					</g>
					<path class="st6" d="M230.84,281.98c-1.03-0.02-2.06-0.23-3.07-0.66c-4.11-1.77-5.99-6.55-4.22-10.66l9.52-22.02
						c1.77-4.11,6.55-5.99,10.66-4.22s5.99,6.55,4.22,10.66l-9.52,22.02C237.09,280.2,234.02,282.04,230.84,281.98z"/>
				</g>
				<g>
					<g>
						<path class="st6" d="M304.93,348.49c-1.03-0.02-2.06-0.23-3.07-0.66c-4.11-1.77-5.99-6.55-4.22-10.66l2.73-6.3
							c1.77-4.11,6.55-5.99,10.66-4.22c4.11,1.77,5.99,6.55,4.22,10.66l-2.73,6.3C311.18,346.71,308.12,348.55,304.93,348.49z"/>
					</g>
					<path class="st6" d="M323.98,304.44c-1.03-0.02-2.06-0.23-3.07-0.66c-4.11-1.77-5.99-6.55-4.22-10.66l9.52-22.02
						c1.77-4.11,6.55-5.99,10.66-4.22c4.11,1.77,5.99,6.55,4.22,10.66l-9.52,22.02C330.23,302.65,327.16,304.5,323.98,304.44z"/>
				</g>
			</g>
		</g>
	</g>
</g>
</svg>
