<?xml version="1.0" encoding="utf-8"?>
<!-- Generator: Adobe Illustrator 26.1.0, SVG Export Plug-In . SVG Version: 6.00 Build 0)  -->
<svg version="1.1" id="Capa_1" xmlns="http://www.w3.org/2000/svg" xmlns:xlink="http://www.w3.org/1999/xlink" x="0px" y="0px"
	 viewBox="0 0 400 400" style="enable-background:new 0 0 400 400;" xml:space="preserve">
<style type="text/css">
	.st0{opacity:0.85;}
	.st1{fill:#FFFFFF;}
</style>
<g class="st0">
	<path class="st1" d="M211.69,215.85c2.28,0.96,4.73-0.98,4.31-3.42l-8.5-49.18c-0.25-1.46,0.54-2.88,1.91-3.44l46.22-18.83
		c2.3-0.94,2.65-4.04,0.62-5.47l-40.79-28.76c-1.2-0.85-1.65-2.42-1.09-3.79l19.37-46c0.96-2.28-0.98-4.73-3.42-4.31l-49.18,8.5
		c-1.46,0.25-2.88-0.54-3.44-1.91l-18.83-46.22c-0.94-2.3-4.04-2.65-5.47-0.62l-28.76,40.79c-0.85,1.2-2.42,1.65-3.79,1.09
		l-46-19.37c-2.28-0.96-4.73,0.98-4.31,3.42l8.52,49.18c0.25,1.46-0.54,2.88-1.91,3.44l-46.22,18.83c-2.3,0.94-2.65,4.04-0.62,5.47
		l40.79,28.76c1.2,0.85,1.65,2.42,1.09,3.79l-19.38,46c-0.96,2.28,0.98,4.73,3.42,4.31l49.18-8.5c1.46-0.25,2.88,0.54,3.44,1.91
		l18.83,46.22c0.94,2.3,4.04,2.65,5.47,0.62l28.76-40.79c0.85-1.2,2.42-1.65,3.79-1.09L211.69,215.85z M106.04,154.97
		c-3.9-4.9-6.67-10.34-8.35-15.99c-5.39-18.07,0.32-38.39,15.98-50.84c20.56-16.34,50.48-12.94,66.83,7.63
		c3.9,4.9,6.67,10.34,8.35,15.99c5.39,18.07-0.32,38.39-15.98,50.84C152.31,178.95,122.39,175.53,106.04,154.97z"/>
	<path class="st1" d="M184.74,138.07c2.5-8.22,2.54-16.9,0.09-25.1l0,0c-1.58-5.31-4.15-10.21-7.62-14.58
		c-7.21-9.07-17.52-14.79-29.03-16.1s-22.84,1.94-31.91,9.14c-6.91,5.5-11.92,12.84-14.49,21.25c-2.5,8.22-2.54,16.9-0.09,25.1
		c1.58,5.3,4.14,10.2,7.62,14.57c7.21,9.07,17.52,14.79,29.03,16.1c11.51,1.31,22.84-1.94,31.91-9.14
		C177.17,153.82,182.18,146.48,184.74,138.07z"/>
</g>
<path class="st1" d="M120.24,160.6l5.58-0.77c-1.57-4.32-2.42-8.97-2.42-13.83c0-22.44,18.2-40.64,40.64-40.64
	c9.51,0,18.25,3.28,25.17,8.75c8.67-25.28,32.62-43.47,60.84-43.47c35.2,0,63.77,28.28,64.29,63.35l1.6-0.22
	c34.43,0,62.34,27.91,62.34,62.34s-27.89,62.35-62.32,62.35H120.24c-27.02,0-48.93-21.91-48.93-48.93
	C71.32,182.51,93.22,160.6,120.24,160.6z"/>
<g>
	<g>
		<path class="st1" d="M105.97,350.72c-0.7,0-1.4-0.13-2.08-0.41c-2.81-1.15-4.15-4.37-3-7.18l2.66-6.48c1.15-2.81,4.37-4.15,7.18-3
			s4.15,4.37,3,7.18l-2.66,6.48C110.18,349.44,108.13,350.72,105.97,350.72z"/>
	</g>
	<g>
		<path class="st1" d="M119.22,318.41c-0.7,0-1.4-0.13-2.09-0.41c-2.81-1.15-4.15-4.37-3-7.18l1.77-4.31c1.15-2.81,4.37-4.15,7.18-3
			s4.15,4.37,3,7.18l-1.77,4.31C123.44,317.12,121.39,318.41,119.22,318.41z"/>
	</g>
	<g>
		<path class="st1" d="M131.59,288.26c-0.7,0-1.4-0.13-2.09-0.41c-2.81-1.15-4.15-4.37-3-7.18l6.18-15.07
			c1.15-2.81,4.37-4.15,7.18-3s4.15,4.37,3,7.18l-6.18,15.07C135.81,286.97,133.75,288.26,131.59,288.26z M148.37,247.35
			c-0.7,0-1.4-0.13-2.09-0.41c-2.81-1.15-4.15-4.37-3-7.18l1.77-4.31c1.15-2.81,4.37-4.15,7.18-3s4.15,4.37,3,7.18l-1.77,4.31
			C152.59,246.06,150.54,247.35,148.37,247.35z M160.74,217.2c-0.7,0-1.4-0.13-2.09-0.41c-2.81-1.15-4.15-4.37-3-7.18l6.18-15.07
			c1.15-2.81,4.37-4.15,7.18-3s4.15,4.37,3,7.18l-6.18,15.07C164.95,215.92,162.9,217.2,160.74,217.2z M177.52,176.29
			c-0.7,0-1.4-0.13-2.09-0.41c-2.81-1.15-4.15-4.37-3-7.18l1.77-4.31c1.15-2.81,4.37-4.15,7.18-3s4.15,4.37,3,7.18l-1.77,4.31
			C181.74,175,179.68,176.29,177.52,176.29z"/>
	</g>
	<g>
		<path class="st1" d="M189.88,146.15c-0.7,0-1.4-0.13-2.08-0.41c-2.81-1.15-4.15-4.37-3-7.18l2.66-6.48c1.15-2.81,4.37-4.15,7.18-3
			c2.81,1.15,4.15,4.37,3,7.18l-2.66,6.48C194.1,144.86,192.05,146.15,189.88,146.15z"/>
	</g>
</g>
<g>
	<g>
		<path class="st1" d="M158.84,342.15c-0.7,0-1.4-0.13-2.09-0.41c-2.81-1.15-4.15-4.37-3-7.18l2.66-6.48c1.15-2.81,4.37-4.15,7.18-3
			s4.15,4.37,3,7.18l-2.66,6.48C163.06,340.86,161.01,342.15,158.84,342.15z"/>
	</g>
	<g>
		<path class="st1" d="M172.1,309.83c-0.7,0-1.4-0.13-2.09-0.41c-2.81-1.15-4.15-4.37-3-7.18l1.77-4.31c1.15-2.81,4.37-4.15,7.18-3
			s4.15,4.37,3,7.18l-1.77,4.31C176.32,308.55,174.26,309.83,172.1,309.83z"/>
	</g>
	<g>
		<path class="st1" d="M184.46,279.69c-0.7,0-1.4-0.13-2.09-0.41c-2.81-1.15-4.15-4.37-3-7.18l6.18-15.07
			c1.15-2.81,4.37-4.15,7.18-3s4.15,4.37,3,7.18l-6.18,15.07C188.68,278.4,186.63,279.69,184.46,279.69z M201.25,238.77
			c-0.7,0-1.4-0.13-2.08-0.41c-2.81-1.15-4.15-4.37-3-7.18l1.77-4.31c1.15-2.81,4.37-4.15,7.18-3s4.15,4.37,3,7.18l-1.77,4.31
			C205.47,237.49,203.41,238.77,201.25,238.77z M213.61,208.63c-0.7,0-1.4-0.13-2.08-0.41c-2.81-1.15-4.15-4.37-3-7.18l6.18-15.07
			c1.15-2.81,4.37-4.15,7.18-3s4.15,4.37,3,7.18l-6.18,15.07C217.83,207.34,215.78,208.63,213.61,208.63z M230.4,167.72
			c-0.7,0-1.4-0.13-2.08-0.41c-2.81-1.15-4.15-4.37-3-7.18l1.77-4.31c1.15-2.81,4.37-4.15,7.18-3s4.15,4.37,3,7.18l-1.77,4.31
			C234.61,166.43,232.56,167.72,230.4,167.72z"/>
	</g>
	<g>
		<path class="st1" d="M242.76,137.57c-0.7,0-1.4-0.13-2.08-0.41c-2.81-1.15-4.15-4.37-3-7.18l2.66-6.48c1.15-2.81,4.37-4.15,7.18-3
			s4.15,4.37,3,7.18l-2.66,6.48C246.98,136.29,244.93,137.57,242.76,137.57z"/>
	</g>
</g>
<g>
	<g>
		<path class="st1" d="M190.47,385.38c-0.7,0-1.4-0.13-2.09-0.41c-2.81-1.15-4.15-4.37-3-7.18l2.66-6.48c1.15-2.81,4.37-4.16,7.18-3
			c2.81,1.15,4.15,4.37,3,7.18l-2.66,6.48C194.68,384.1,192.63,385.38,190.47,385.38z"/>
	</g>
	<g>
		<path class="st1" d="M203.72,353.07c-0.7,0-1.4-0.13-2.08-0.41c-2.81-1.15-4.15-4.37-3-7.18l1.77-4.31c1.15-2.81,4.37-4.15,7.18-3
			s4.15,4.37,3,7.18l-1.77,4.31C207.94,351.78,205.89,353.07,203.72,353.07z"/>
	</g>
	<g>
		<path class="st1" d="M216.09,322.92c-0.7,0-1.4-0.13-2.08-0.41c-2.81-1.15-4.15-4.37-3-7.18l6.18-15.07
			c1.15-2.81,4.37-4.15,7.18-3s4.15,4.37,3,7.18l-6.18,15.07C220.31,321.64,218.25,322.92,216.09,322.92z M232.87,282.01
			c-0.7,0-1.4-0.13-2.08-0.41c-2.81-1.15-4.15-4.37-3-7.18l1.77-4.31c1.15-2.81,4.37-4.15,7.18-3s4.15,4.37,3,7.18l-1.77,4.31
			C237.09,280.73,235.04,282.01,232.87,282.01z M245.24,251.87c-0.7,0-1.4-0.13-2.08-0.41c-2.81-1.15-4.15-4.37-3-7.18l6.18-15.07
			c1.15-2.81,4.37-4.15,7.18-3s4.15,4.37,3,7.18l-6.18,15.07C249.45,250.58,247.4,251.87,245.24,251.87z M262.02,210.95
			c-0.7,0-1.4-0.13-2.08-0.41c-2.81-1.15-4.15-4.37-3-7.18l1.77-4.31c1.15-2.81,4.37-4.15,7.18-3s4.15,4.37,3,7.18l-1.77,4.31
			C266.24,209.67,264.18,210.95,262.02,210.95z"/>
	</g>
	<g>
		<path class="st1" d="M274.38,180.81c-0.7,0-1.4-0.13-2.08-0.41c-2.81-1.15-4.15-4.37-3-7.18l2.66-6.48c1.15-2.81,4.37-4.15,7.18-3
			s4.15,4.37,3,7.18l-2.66,6.48C278.6,179.52,276.55,180.81,274.38,180.81z"/>
	</g>
</g>
<g>
	<g>
		<path class="st1" d="M243.34,376.81c-0.7,0-1.4-0.13-2.08-0.41c-2.81-1.15-4.15-4.37-3-7.18l2.66-6.48c1.15-2.81,4.37-4.15,7.18-3
			s4.15,4.37,3,7.18l-2.66,6.48C247.56,375.52,245.51,376.81,243.34,376.81z"/>
	</g>
	<g>
		<path class="st1" d="M256.6,344.5c-0.7,0-1.4-0.13-2.08-0.41c-2.81-1.15-4.15-4.37-3-7.18l1.77-4.31c1.15-2.81,4.37-4.15,7.18-3
			s4.15,4.37,3,7.18l-1.77,4.31C260.82,343.21,258.76,344.5,256.6,344.5z"/>
	</g>
	<g>
		<path class="st1" d="M268.96,314.35c-0.7,0-1.4-0.13-2.08-0.41c-2.81-1.15-4.15-4.37-3-7.18l6.18-15.07
			c1.15-2.81,4.37-4.15,7.18-3s4.15,4.37,3,7.18l-6.18,15.07C273.18,313.06,271.13,314.35,268.96,314.35z M285.75,273.44
			c-0.7,0-1.4-0.13-2.08-0.41c-2.81-1.15-4.15-4.37-3-7.18l1.77-4.31c1.15-2.81,4.37-4.15,7.18-3s4.15,4.37,3,7.18l-1.77,4.31
			C289.96,272.15,287.91,273.44,285.75,273.44z M298.11,243.29c-0.7,0-1.4-0.13-2.09-0.41c-2.81-1.15-4.15-4.37-3-7.18l6.18-15.07
			c1.15-2.81,4.37-4.15,7.18-3s4.15,4.37,3,7.18l-6.18,15.07C302.33,242.01,300.28,243.29,298.11,243.29z M314.9,202.38
			c-0.7,0-1.4-0.13-2.09-0.41c-2.81-1.15-4.15-4.37-3-7.18l1.77-4.31c1.15-2.81,4.37-4.15,7.18-3s4.15,4.37,3,7.18l-1.77,4.31
			C319.11,201.09,317.06,202.38,314.9,202.38z"/>
	</g>
	<g>
		<path class="st1" d="M327.26,172.23c-0.7,0-1.4-0.13-2.08-0.41c-2.81-1.15-4.15-4.37-3-7.18l2.66-6.48c1.15-2.81,4.37-4.15,7.18-3
			s4.15,4.37,3,7.18l-2.66,6.48C331.48,170.95,329.43,172.23,327.26,172.23z"/>
	</g>
</g>
</svg>
