<?xml version="1.0" encoding="utf-8"?>
<!-- Generator: Adobe Illustrator 26.1.0, SVG Export Plug-In . SVG Version: 6.00 Build 0)  -->
<svg version="1.1" id="Capa_1" xmlns="http://www.w3.org/2000/svg" xmlns:xlink="http://www.w3.org/1999/xlink" x="0px" y="0px"
	 viewBox="0 0 400 400" style="enable-background:new 0 0 400 400;" xml:space="preserve">
<style type="text/css">
	.cloudBack{
		fill:#C1C1C1;
		enable-background:new;
		animation: pulse3 3s alternate infinite;
	}
	@keyframes pulse3 {
  		0% {
			opacity:0.5;
  		}
		15% {
			opacity:0.5;
  		}
		20% {
			opacity:0.6;
		}
		25% {
			opacity:0.5;
		}
		40% {
			opacity:0.5;
		}
		45% {
			opacity:0.6;
		}
		55% {
			opacity:0.5;
		}
		100% {
			opacity:0.5;
		}
	}

	.cloudFront{
		fill:#FFFFFF;
		enable-background:new;
		animation: pulse4 3s infinite;
	}
	@keyframes pulse4 {
  		0% {
			opacity:0.6;
  		}
		15% {
			opacity:0.6;
  		}
		20% {
			opacity:0.8;
		}
		25% {
			opacity:0.6;
		}
		40% {
			opacity:0.6;
		}
		45% {
			opacity:0.8;
		}
		55% {
			opacity:0.6;
		}
		100% {
			opacity:0.6;
		}
	}
	
	.lightOutside,
	.lightInside{
		fill:#FFFFFF;
		animation: pulse2 ease-in 3.1s infinite;

	}
	@keyframes pulse2 {
  		0% {
			opacity:0;
  		}
		15% {
			opacity:0;
  		}
		20% {
			opacity:0.1;
		}
		25% {
			opacity:0;
		}
		40% {
			opacity:0;
		}
		45% {
			opacity:0.1;
		}
		55% {
			opacity:0;
		}
		100% {
			opacity:0;
		}
	}



	
	.thunder{
		enable-background:new;
		animation: pulse ease-in 3s infinite;
	}
	@keyframes pulse {
  		0% {
			opacity:0;
  		}
		15% {
			opacity:0;
  		}
		20% {
			fill:#FFC06E;
			opacity:0.7;
		}

		25% {
			opacity:0.9;
			fill:#FFFFFF;
		}
		40% {
			opacity:0;
		}
		45% {
			opacity:0.7;
			fill:#FFC06E;
		}
		55% {
			opacity:0.9;
			fill:#FFFFFF;
		}

		65% {
			opacity:0;
		}
		100% {
			opacity:0;
		}
	}


</style>
<g>
	<path class="cloudBack" d="M306.74,149.57c0,27.02-21.91,48.93-48.93,48.93H62.1c-34.43,0-62.34-27.91-62.34-62.34
		S27.67,73.82,62.1,73.82l1.6,0.22c0.52-35.08,29.1-63.35,64.29-63.35c28.22,0,52.18,18.19,60.84,43.47
		c6.92-5.48,15.66-8.75,25.17-8.75c22.44,0,40.64,18.2,40.64,40.64c0,4.86-0.85,9.52-2.42,13.83l5.58,0.77
		C284.84,100.64,306.74,122.54,306.74,149.57z"/>
	<path class="cloudFront" d="M142.2,171.67l5.58-0.77c-1.57-4.32-2.42-8.97-2.42-13.83c0-22.44,18.2-40.64,40.64-40.64
		c9.51,0,18.25,3.28,25.17,8.75c8.67-25.28,32.62-43.47,60.84-43.47c35.2,0,63.77,28.28,64.29,63.35l1.6-0.22
		c34.43,0,62.34,27.91,62.34,62.34s-27.89,62.35-62.32,62.35H142.2c-27.02,0-48.93-21.91-48.93-48.93
		C93.28,193.58,115.18,171.67,142.2,171.67z"/>

	<path class="lightOutside" d="M279.72,260.21h-10.8l22.11-37.41c2.21-3.74,2.25-8.41,0.1-12.18c-2.15-3.77-6.19-6.12-10.54-6.12H231.7
		c-4.8,0-9.16,2.85-11.11,7.25l-34.55,81.16c-1.58,3.75-1.18,8.02,1.08,11.42c2.25,3.39,6.03,5.42,10.1,5.42h10.38l-18.96,52.29
		c-2.01,5.53,0.23,11.68,5.32,14.63c1.91,1.1,4.01,1.64,6.08,1.64c3.47,0,6.87-1.49,9.24-4.28l79.69-93.85
		c3.04-3.59,3.73-8.67,1.75-12.94C288.75,262.97,284.43,260.21,279.72,260.21z"/>
	<path class="lightInside" d="M286.33,252.11l13.72-23.21c4.04-6.82,4.1-15.34,0.18-22.23c-3.93-6.88-11.29-11.16-19.22-11.16h-48.89
		c-8.75,0-16.7,5.18-20.25,13.2l-34.63,81.33c-2.89,6.85-2.15,14.64,1.96,20.83c3.41,5.13,8.72,8.55,14.67,9.57l-14.21,39.19
		c-3.66,10.09,0.42,21.32,9.71,26.7c3.37,1.95,7.21,2.99,11.09,2.99c6.52,0,12.67-2.85,16.86-7.81l79.7-93.85
		c5.55-6.55,6.81-15.82,3.2-23.61C297.49,258.18,292.36,253.88,286.33,252.11z"/>
	<path class="thunder" d="M231.7,214.5h48.89c1.65,0,2.67,1.79,1.83,3.21L253.29,267c-0.84,1.42,0.18,3.21,1.83,3.21h24.6
		c1.81,0,2.79,2.12,1.62,3.5l-79.69,93.84c-1.53,1.81-4.43,0.13-3.62-2.1l22.79-62.85c0.5-1.39-0.52-2.85-2-2.85h-21.61
		c-1.52,0-2.55-1.56-1.96-2.96l34.48-80.99C230.08,215.01,230.85,214.5,231.7,214.5z"/>
</g>
</svg>
