<?xml version="1.0" encoding="utf-8"?>
<!-- Generator: Adobe Illustrator 26.1.0, SVG Export Plug-In . SVG Version: 6.00 Build 0)  -->
<svg version="1.1" id="Capa_1" xmlns="http://www.w3.org/2000/svg" xmlns:xlink="http://www.w3.org/1999/xlink" x="0px" y="0px"
	 viewBox="0 0 400 400" style="enable-background:new 0 0 400 400;" xml:space="preserve">
<style type="text/css">
	.st0{opacity:0.8;fill:#FFFFFF;enable-background:new    ;}
	.st1{opacity:0.9;fill:#FFFFFF;enable-background:new    ;}
	.st2{fill:#FFFFFF;}
</style>
<path class="st0" d="M306.48,139.64c0,27.02-21.91,48.93-48.93,48.93H61.84c-34.43,0-62.34-27.91-62.34-62.34
	s27.91-62.34,62.34-62.34l1.6,0.22c0.52-35.08,29.1-63.35,64.29-63.35c28.22,0,52.18,18.19,60.84,43.47
	c6.92-5.48,15.66-8.75,25.17-8.75c22.44,0,40.64,18.2,40.64,40.64c0,4.86-0.85,9.52-2.42,13.83l5.58,0.77
	C284.58,90.71,306.48,112.61,306.48,139.64z"/>
<path class="st1" d="M141.94,161.74l5.58-0.77c-1.57-4.32-2.42-8.97-2.42-13.83c0-22.44,18.2-40.64,40.64-40.64
	c9.51,0,18.25,3.28,25.17,8.75c8.67-25.28,32.62-43.47,60.84-43.47c35.2,0,63.77,28.28,64.29,63.35l1.6-0.22
	c34.43,0,62.34,27.91,62.34,62.34s-27.89,62.35-62.32,62.35H141.94c-27.02,0-48.93-21.91-48.93-48.93
	C93.02,183.65,114.92,161.74,141.94,161.74z"/>
<path class="st2" d="M237.7,219.07h48.89c1.65,0,2.67,1.79,1.83,3.21l-29.13,49.29c-0.84,1.42,0.18,3.21,1.83,3.21h24.6
	c1.81,0,2.79,2.12,1.62,3.5l-79.69,93.84c-1.53,1.81-4.43,0.13-3.62-2.1l22.79-62.85c0.5-1.39-0.52-2.85-2-2.85h-21.61
	c-1.52,0-2.55-1.56-1.96-2.96l34.48-80.99C236.08,219.58,236.85,219.07,237.7,219.07z"/>
</svg>
