<?xml version="1.0" encoding="utf-8"?>
<!-- Generator: Adobe Illustrator 26.1.0, SVG Export Plug-In . SVG Version: 6.00 Build 0)  -->
<svg version="1.1" id="Capa_1" xmlns="http://www.w3.org/2000/svg" xmlns:xlink="http://www.w3.org/1999/xlink" x="0px" y="0px"
	 viewBox="0 0 400 400" style="enable-background:new 0 0 400 400;" xml:space="preserve">
<style type="text/css">
	.st0{opacity:0.85;fill:#FFFFFF;enable-background:new    ;}
	.st1{opacity:0.95;fill:#FFFFFF;enable-background:new    ;}
	.st2{fill:#FFFFFF;}
</style>
<path class="st0" d="M306.48,138.88c0,27.02-21.91,48.93-48.93,48.93H61.84c-34.43,0-62.34-27.91-62.34-62.34
	s27.91-62.34,62.34-62.34l1.6,0.22C63.96,28.27,92.54,0,127.73,0c28.22,0,52.18,18.19,60.84,43.47c6.92-5.48,15.66-8.75,25.17-8.75
	c22.44,0,40.64,18.2,40.64,40.64c0,4.86-0.85,9.52-2.42,13.83l5.58,0.77C284.58,89.95,306.48,111.85,306.48,138.88z"/>
<path class="st1" d="M141.94,160.98l5.58-0.77c-1.57-4.32-2.42-8.97-2.42-13.83c0-22.44,18.2-40.64,40.64-40.64
	c9.51,0,18.25,3.28,25.17,8.75c8.67-25.28,32.62-43.47,60.84-43.47c35.2,0,63.77,28.28,64.29,63.35l1.6-0.22
	c34.43,0,62.34,27.91,62.34,62.34s-27.89,62.35-62.32,62.35H141.94c-27.02,0-48.93-21.91-48.93-48.93
	C93.02,182.89,114.92,160.98,141.94,160.98z"/>
<g>
	<g>
		<path class="st2" d="M171.38,327.17c3.42,0.62,6.64-1.34,7.19-4.38l0.33-1.83c0.55-3.04-1.77-6.01-5.18-6.63
			c-3.42-0.62-6.64,1.34-7.19,4.38l-0.33,1.83C165.64,323.58,167.96,326.55,171.38,327.17z"/>
		<path class="st2" d="M179.47,282.75c-4.55-0.83-8.85,1.79-9.59,5.83l-0.33,1.83c-0.74,4.05,2.36,8.01,6.91,8.84
			s8.85-1.79,9.59-5.83l0.33-1.83C187.12,287.54,184.02,283.58,179.47,282.75z"/>
		<path class="st2" d="M182.04,268.66c3.42,0.62,6.64-1.34,7.19-4.38l0.33-1.83c0.55-3.04-1.77-6.01-5.18-6.63
			c-3.42-0.62-6.64,1.34-7.19,4.38l-0.33,1.83C176.3,265.06,178.62,268.03,182.04,268.66z"/>
		<path class="st2" d="M189.95,225.21c-4.55-0.83-8.85,1.79-9.59,5.83l-0.33,1.83c-0.74,4.05,2.36,8.01,6.91,8.84
			s8.85-1.79,9.59-5.83l0.33-1.83C197.6,230.01,194.5,226.04,189.95,225.21z"/>
		<path class="st2" d="M192.52,211.12c3.42,0.62,6.64-1.34,7.19-4.38l0.33-1.83c0.55-3.04-1.77-6.01-5.18-6.63
			c-3.42-0.62-6.64,1.34-7.19,4.38l-0.33,1.83C186.78,207.53,189.11,210.5,192.52,211.12z"/>
		<path class="st2" d="M200.44,167.68c-4.55-0.83-8.85,1.79-9.59,5.83l-0.33,1.83c-0.74,4.05,2.36,8.01,6.91,8.84
			s8.85-1.79,9.59-5.83l0.33-1.83C208.09,172.48,204.99,168.51,200.44,167.68z"/>
	</g>
	<g>
		<path class="st2" d="M207.23,369.45c-3.42-0.62-6.64,1.34-7.19,4.38l-0.33,1.83c-0.55,3.04,1.77,6.01,5.18,6.63
			c3.42,0.62,6.64-1.34,7.19-4.38l0.33-1.83C212.96,373.05,210.64,370.08,207.23,369.45z"/>
		<path class="st2" d="M212.8,338.85c-4.55-0.83-8.85,1.79-9.59,5.83l-0.33,1.83c-0.74,4.05,2.36,8.01,6.91,8.84
			s8.85-1.79,9.59-5.83l0.33-1.83C220.45,343.65,217.35,339.68,212.8,338.85z"/>
		<path class="st2" d="M215.37,324.76c3.42,0.62,6.64-1.34,7.19-4.38l0.33-1.83c0.55-3.04-1.77-6.01-5.18-6.63
			c-3.42-0.62-6.64,1.34-7.19,4.38l-0.33,1.83C209.63,321.17,211.95,324.14,215.37,324.76z"/>
		<path class="st2" d="M223.47,280.34c-4.55-0.83-8.85,1.79-9.59,5.83l-0.33,1.83c-0.74,4.05,2.36,8.01,6.91,8.84
			s8.85-1.79,9.59-5.83l0.33-1.83C231.12,285.13,228.01,281.17,223.47,280.34z"/>
		<path class="st2" d="M226.03,266.25c3.42,0.62,6.64-1.34,7.19-4.38l0.33-1.83c0.55-3.04-1.77-6.01-5.18-6.63
			c-3.42-0.62-6.64,1.34-7.19,4.38l-0.33,1.83C220.3,262.65,222.62,265.62,226.03,266.25z"/>
		<path class="st2" d="M233.95,222.8c-4.55-0.83-8.85,1.79-9.59,5.83l-0.33,1.83c-0.74,4.05,2.36,8.01,6.91,8.84
			s8.85-1.79,9.59-5.83l0.33-1.83C241.6,227.6,238.5,223.63,233.95,222.8z"/>
	</g>
	<g>
		<path class="st2" d="M255.69,342.54c3.42,0.62,6.64-1.34,7.19-4.38l0.33-1.83c0.55-3.04-1.77-6.01-5.18-6.63
			c-3.42-0.62-6.64,1.34-7.19,4.38l-0.33,1.83C249.95,338.95,252.27,341.91,255.69,342.54z"/>
		<path class="st2" d="M263.78,298.11c-4.55-0.83-8.85,1.79-9.59,5.83l-0.33,1.83c-0.74,4.05,2.36,8.01,6.91,8.84
			s8.85-1.79,9.59-5.83l0.33-1.83C271.43,302.91,268.33,298.94,263.78,298.11z"/>
		<path class="st2" d="M266.35,284.02c3.42,0.62,6.64-1.34,7.19-4.38l0.33-1.83c0.55-3.04-1.77-6.01-5.18-6.63
			c-3.42-0.62-6.64,1.34-7.19,4.38l-0.33,1.83C260.61,280.43,262.93,283.4,266.35,284.02z"/>
		<path class="st2" d="M274.27,240.58c-4.55-0.83-8.85,1.79-9.59,5.83l-0.33,1.83c-0.74,4.05,2.36,8.01,6.91,8.84
			s8.85-1.79,9.59-5.83l0.33-1.83C281.92,245.37,278.82,241.41,274.27,240.58z"/>
		<path class="st2" d="M276.83,226.49c3.42,0.62,6.64-1.34,7.19-4.38l0.33-1.83c0.55-3.04-1.77-6.01-5.18-6.63
			c-3.42-0.62-6.64,1.34-7.19,4.38l-0.33,1.83C271.1,222.9,273.42,225.86,276.83,226.49z"/>
		<path class="st2" d="M284.75,183.04c-4.55-0.83-8.85,1.79-9.59,5.83l-0.33,1.83c-0.74,4.05,2.36,8.01,6.91,8.84
			c4.55,0.83,8.85-1.79,9.59-5.83l0.33-1.83C292.4,187.84,289.3,183.87,284.75,183.04z"/>
	</g>
	<g>
		<path class="st2" d="M291.54,384.82c-3.42-0.62-6.64,1.34-7.19,4.38l-0.33,1.83c-0.55,3.04,1.77,6.01,5.18,6.63
			c3.42,0.62,6.64-1.34,7.19-4.38l0.33-1.83C297.28,388.41,294.96,385.44,291.54,384.82z"/>
		<path class="st2" d="M297.12,354.22c-4.55-0.83-8.85,1.79-9.59,5.83l-0.33,1.83c-0.74,4.05,2.36,8.01,6.91,8.84
			c4.55,0.83,8.85-1.79,9.59-5.83l0.33-1.83C304.77,359.01,301.66,355.05,297.12,354.22z"/>
		<path class="st2" d="M299.68,340.13c3.42,0.62,6.64-1.34,7.19-4.38l0.33-1.83c0.55-3.04-1.77-6.01-5.18-6.63
			c-3.42-0.62-6.64,1.34-7.19,4.38l-0.33,1.83C293.95,336.53,296.27,339.5,299.68,340.13z"/>
		<path class="st2" d="M307.78,295.7c-4.55-0.83-8.85,1.79-9.59,5.83l-0.33,1.83c-0.74,4.05,2.36,8.01,6.91,8.84
			c4.55,0.83,8.85-1.79,9.59-5.83l0.33-1.83C315.43,300.5,312.33,296.53,307.78,295.7z"/>
		<path class="st2" d="M310.35,281.61c3.42,0.62,6.64-1.34,7.19-4.38l0.33-1.83c0.55-3.04-1.77-6.01-5.18-6.63
			c-3.42-0.62-6.64,1.34-7.19,4.38l-0.33,1.83C304.61,278.02,306.93,280.99,310.35,281.61z"/>
		<path class="st2" d="M318.26,238.17c-4.55-0.83-8.85,1.79-9.59,5.83l-0.33,1.83c-0.74,4.05,2.36,8.01,6.91,8.84
			c4.55,0.83,8.85-1.79,9.59-5.83l0.33-1.83C325.91,242.96,322.81,239,318.26,238.17z"/>
	</g>
</g>
</svg>
