<?xml version="1.0" encoding="utf-8"?>
<!-- Generator: Adobe Illustrator 26.1.0, SVG Export Plug-In . SVG Version: 6.00 Build 0)  -->
<svg version="1.1" id="Capa_1" xmlns="http://www.w3.org/2000/svg" xmlns:xlink="http://www.w3.org/1999/xlink" x="0px" y="0px"
	 viewBox="0 0 400 400" style="enable-background:new 0 0 400 400;" xml:space="preserve">
<style type="text/css">
	.st0{opacity:0.5;fill:#FFFFFF;enable-background:new    ;}
	.st1{opacity:0.7;fill:#FFFFFF;enable-background:new    ;}
	.st2{opacity:0.8;fill:#FFFFFF;}
</style>
<g>
	<g>
		<path class="st0" d="M306.74,165.9c0,27.02-21.91,48.93-48.93,48.93H62.1c-34.43,0-62.34-27.91-62.34-62.34
			S27.67,90.15,62.1,90.15l1.6,0.22c0.52-35.08,29.1-63.35,64.29-63.35c28.22,0,52.18,18.19,60.84,43.47
			c6.92-5.48,15.66-8.75,25.17-8.75c22.44,0,40.64,18.2,40.64,40.64c0,4.86-0.85,9.52-2.42,13.83l5.58,0.77
			C284.84,116.97,306.74,138.87,306.74,165.9z"/>
		<path class="st1" d="M142.2,188l5.58-0.77c-1.57-4.32-2.42-8.97-2.42-13.83c0-22.44,18.2-40.64,40.64-40.64
			c9.51,0,18.25,3.28,25.17,8.75c8.67-25.28,32.62-43.47,60.84-43.47c35.2,0,63.77,28.28,64.29,63.35l1.6-0.22
			c34.43,0,62.34,27.91,62.34,62.34s-27.89,62.35-62.32,62.35H142.2c-27.02,0-48.93-21.91-48.93-48.93
			C93.28,209.91,115.18,188,142.2,188z"/>
	</g>
	<circle class="st2" cx="138.09" cy="304.76" r="8.93"/>
	<circle class="st2" cx="163.25" cy="331.53" r="6.52"/>
	<circle class="st2" cx="202.08" cy="328.26" r="8.93"/>
	<circle class="st2" cx="221.52" cy="366.46" r="6.52"/>
	<circle class="st2" cx="238.62" cy="304.76" r="8.93"/>
	<circle class="st2" cx="263.78" cy="331.53" r="6.52"/>
	<circle class="st2" cx="302.6" cy="328.26" r="8.93"/>
	<circle class="st2" cx="322.04" cy="366.46" r="6.52"/>
	<circle class="st2" cx="339.14" cy="304.76" r="8.93"/>
	<circle class="st2" cx="364.3" cy="331.53" r="6.52"/>
</g>
</svg>
