<?xml version="1.0" encoding="utf-8"?>
<!-- Generator: Adobe Illustrator 26.1.0, SVG Export Plug-In . SVG Version: 6.00 Build 0)  -->
<svg version="1.1" id="Capa_1" xmlns="http://www.w3.org/2000/svg" xmlns:xlink="http://www.w3.org/1999/xlink" x="0px" y="0px"
	 viewBox="0 0 400 400" style="enable-background:new 0 0 400 400;" xml:space="preserve">
<style type="text/css">
	.cloudBack{
		opacity:0.5;
		fill:#FFFFFF;
		enable-background:new;
		animation: cloud ease-in-out 10s alternate infinite;

	}
	@keyframes cloud {
  		0% {
    		transform: translate(0);
  		}
 		100% {
    		transform: translate(20%, 10%);
		}
	}
	
	.cloudFront{
		opacity:0.7;
		fill:#FFFFFF;
		enable-background:new;
	}

	.snow1{
		animation: fall 6s linear infinite;
	}
	@keyframes fall{
		0% {
			transform: translate(0, 0);
			opacity:0;
		}
		15% {
			opacity:0.8;
		}
		80%{
			opacity:0.8;
		}
		100% {
			transform: translate(0, 18%);
			opacity:0;
		}	
	}

	.snow2{
		opacity:0;
		animation: fall2 6s linear 2s infinite;
	}
	@keyframes fall2{
		0% {
			transform: translate(0, 0);
			opacity:0;
		}
		10% {
			opacity:0.8;
		}
		80%{
			opacity:0.8;
		}
		100% {
			transform: translate(0, 10%);
			opacity:0;
		}	
	}

	.snow3{
		opacity:0;
		animation: fall3 6s linear 7s infinite;
	}
	@keyframes fall3{
		0% {
			transform: translate(0, 0);
			opacity:0;
		}
		30% {
			opacity:0;
		}
		40% {
			opacity:0.8;
		}
		80%{
			opacity:0.8;
		}
		100% {
			transform: translate(0, 24%);
			opacity:0;
		}	
	}

	.snow{
		fill: #FFFFFF;		
		animation: rotate 20s linear infinite;
		transform-origin: center;
		transform-box: fill-box;
	}
	@keyframes rotate{
		0% {
			transform: rotate(0);
		}
		100% {
			transform: rotate(360deg);
		}	
	}

</style>
<path class="cloudBack" d="M307.7,185.6c0,27-21.9,48.9-48.9,48.9H63.1c-34.4,0-62.3-27.9-62.3-62.3s27.9-62.3,62.3-62.3l1.6,0.2
	C65.2,75,93.8,46.7,129,46.7c28.2,0,52.2,18.2,60.8,43.5c6.9-5.5,15.7-8.8,25.2-8.8c22.4,0,40.6,18.2,40.6,40.6
	c0,4.9-0.9,9.5-2.4,13.8l5.6,0.8C285.8,136.7,307.7,158.6,307.7,185.6z"/>
<path class="cloudFront" d="M141.2,207.7l5.6-0.8c-1.6-4.3-2.4-9-2.4-13.8c0-22.4,18.2-40.6,40.6-40.6c9.5,0,18.2,3.3,25.2,8.8
	c8.6-25.4,32.6-43.6,60.8-43.6c35.2,0,63.8,28.3,64.3,63.3l1.6-0.2c34.4,0,62.3,27.9,62.3,62.3s-27.9,62.4-62.3,62.4H141.2
	c-27,0-48.9-21.9-48.9-48.9S114.2,207.7,141.2,207.7z"/>

<g class="snow1">
<path class="snow" d="M189.2,307.9h-15.1l6.4-6.4c1.3-1.3,1.3-3.6,0-4.9l0,0c-1.3-1.3-3.6-1.3-4.9,0l-6.4,6.4v-15.1
	c0-1.9-1.6-3.5-3.5-3.5l0,0c-1.9,0-3.5,1.6-3.5,3.5V303l-6.2-6.4c-1.3-1.3-3.6-1.3-4.9,0l0,0c-1.3,1.3-1.3,3.6,0,4.9l6.4,6.4h-15.1
	c-1.9,0-3.5,1.6-3.5,3.5s1.6,3.5,3.5,3.5h15.1l-6.4,6.4c-1.3,1.3-1.3,3.6,0,4.9c1.3,1.3,3.6,1.3,4.9,0l6.4-6.4v15.1
	c0,1.9,1.6,3.5,3.5,3.5l0,0c1.9,0,3.5-1.6,3.5-3.5v-15.1l6.4,6.4c1.3,1.3,3.6,1.3,4.9,0c1.3-1.3,1.3-3.6,0-4.9l-6.4-6.4h15
	c1.9,0,3.5-1.6,3.5-3.5C192.7,309.4,191.2,307.9,189.2,307.9z"/>
</g>
<g class="snow1">
<path class="snow" d="M336.8,287.7h-15.1l6.4-6.4c1.3-1.3,1.3-3.6,0-4.9l0,0c-1.3-1.3-3.6-1.3-4.9,0l-6.4,6.4v-15.1
	c0-1.9-1.6-3.5-3.5-3.5l0,0c-1.9,0-3.5,1.6-3.5,3.5v15.1l-6.4-6.4c-1.3-1.3-3.6-1.3-4.9,0l0,0c-1.3,1.3-1.3,3.6,0,4.9l6.4,6.4
	h-15.1c-1.9,0-3.5,1.6-3.5,3.5s1.6,3.5,3.5,3.5H305l-6.4,6.4c-1.3,1.3-1.3,3.6,0,4.9c1.3,1.3,3.6,1.3,4.9,0l6.4-6.4v15.1
	c0,1.9,1.6,3.5,3.5,3.5l0,0c1.9,0,3.5-1.6,3.5-3.5v-15.1l6.4,6.4c1.3,1.3,3.6,1.3,4.9,0c1.3-1.3,1.3-3.6,0-4.9l-6.4-6.4h15.1
	c1.9,0,3.5-1.6,3.5-3.5C340.3,289.2,338.8,287.7,336.8,287.7z"/>
</g>
<g class="snow2">
<path class="snow" d="M259.4,329.9h-11.7l5-5c1.1-1.1,1.1-2.8,0-3.7l0,0c-1.1-1.1-2.8-1.1-3.7,0l-5,5v-11.7c0-1.5-1.2-2.7-2.7-2.7
	l0,0c-1.5,0-2.7,1.2-2.7,2.7v11.7l-5.2-5c-1.1-1.1-2.8-1.1-3.7,0l0,0c-1.1,1.1-1.1,2.8,0,3.7l5,5h-11.7c-1.5,0-2.7,1.2-2.7,2.7
	c0,1.5,1.2,2.7,2.7,2.7h11.7l-5,5c-1.1,1.1-1.1,2.8,0,3.7c1.1,1.1,2.8,1.1,3.7,0l5-5v11.7c0,1.5,1.2,2.7,2.7,2.7l0,0
	c1.5,0,2.7-1.2,2.7-2.7V339l5,5c1.1,1.1,2.8,1.1,3.7,0s1.1-2.8,0-3.7l-5-5h11.7c1.5,0,2.7-1.2,2.7-2.7
	C262.1,331.1,260.9,329.9,259.4,329.9z"/>
</g>

<g class="snow3">
<path class="snow" d="M221.2,261.6h-11.7l5-5c1.1-1.1,1.1-2.8,0-3.7l0,0c-1.1-1.1-2.8-1.1-3.7,0l-5,5v-11.7c0-1.5-1.2-2.7-2.7-2.7
	l0,0c-1.5,0-2.7,1.2-2.7,2.7v11.7l-5.2-5c-1.1-1.1-2.8-1.1-3.7,0l0,0c-1.1,1.1-1.1,2.8,0,3.7l5,5h-11.7c-1.5,0-2.7,1.2-2.7,2.7
	c0,1.5,1.2,2.7,2.7,2.7h11.7l-5,5c-1.1,1.1-1.1,2.8,0,3.7c1.1,1.1,2.8,1.1,3.7,0l5-5v11.7c0,1.5,1.2,2.7,2.7,2.7l0,0
	c1.5,0,2.7-1.2,2.7-2.7v-11.7l5,5c1.1,1.1,2.8,1.1,3.7,0s1.1-2.8,0-3.7l-5-5H221c1.5,0,2.7-1.2,2.7-2.7
	C223.8,262.8,222.6,261.6,221.2,261.6z"/>
	</g>

<g class="snow3">
<path class="snow" d="M297.6,245.7h-11.7l5-5c1.1-1.1,1.1-2.8,0-3.7l0,0c-1.1-1.1-2.8-1.1-3.7,0l-5,5v-11.7c0-1.5-1.2-2.7-2.7-2.7
	l0,0c-1.5,0-2.7,1.2-2.7,2.7V242l-5-5c-1.1-1.1-2.8-1.1-3.7,0l0,0c-1.1,1.1-1.1,2.8,0,3.7l5,5h-11.7c-1.5,0-2.7,1.2-2.7,2.7
	c0,1.5,1.2,2.7,2.7,2.7h11.7l-5,5c-1.1,1.1-1.1,2.8,0,3.7c1.1,0.9,2.8,1.1,3.7,0l5-5v11.7c0,1.5,1.2,2.7,2.7,2.7l0,0
	c1.5,0,2.7-1.2,2.7-2.7v-11.7l5,5c1.1,1.1,2.8,1.1,3.7,0c1.1-1.1,1.1-2.8,0-3.7l-5-5h11.7c1.5,0,2.7-1.2,2.7-2.7
	C300.4,246.9,299.2,245.7,297.6,245.7z"/>
	</g>
</svg>
