<?xml version="1.0" encoding="utf-8"?>
<!-- Generator: Adobe Illustrator 26.1.0, SVG Export Plug-In . SVG Version: 6.00 Build 0)  -->
<svg version="1.1" id="Capa_1" xmlns="http://www.w3.org/2000/svg" xmlns:xlink="http://www.w3.org/1999/xlink" x="0px" y="0px"
	 viewBox="0 0 400 400" style="enable-background:new 0 0 400 400;" xml:space="preserve">
<style type="text/css">
	.mistBack{
		opacity:0.4;
		fill:#D7EBF5;
		enable-background:new;
		animation: mist1 ease-in-out 8s alternate infinite;
	}
	@keyframes mist1 {
  		0% {
    		transform: translate(0);
  		}

		25%{
			opacity:0.2;
		}

		50%{
			opacity:0.4;
		}

 		100% {
    		transform: translate(8%, -6%) scale(0.8);
			opacity:0.6;
		}
	}

	.mistFront{
		opacity:0.6;
		fill:#D7EBF5;
		enable-background:new;
		animation: mist2 ease-in-out 8s alternate infinite;

	}
	@keyframes mist2 {
  		0% {
    		transform: translate(0);
  		}

		30%{
			opacity:0.4;
		}

		60%{
			opacity:0.6;
		}

 		100% {
    		transform: translate(-8%, 6%) scale(0.8);
			opacity:0.2;
		}
	}
</style>
<path class="mistBack" d="M98,157.7c0,7.8,6.3,14.1,14.2,14.1h146.9c7.8,0,14.1,6.3,14.1,14.1c0,7.8-6.3,14.1-14.2,14.1h-84.4
	c-7.8,0-14.1,6.3-14.1,14.1s6.3,14.1,14.1,14.1h178.9c7.8,0,14.1-6.3,14.1-14.1s-6.3-14.1-14.1-14.1h-5.2c-7.9,0-14.2-6.3-14.2-14.1
	c0-7.8,6.3-14.1,14.1-14.1h37.7c7.8,0,14.1-6.3,14.1-14.1c0-7.8-6.3-14.1-14.1-14.1H232.3c-7.9,0-14.2-6.3-14.2-14.1
	s6.2-14.1,14.1-14.1h47.9c7.8,0,14.1-6.3,14.1-14.1s-6.3-14.1-14.1-14.1H140.6c-7.8,0-14.1,6.3-14.1,14.1s6.3,14.1,14.2,14.1h2.5
	c7.8,0,14.1,6.3,14.1,14.1s-6.3,14.1-14.2,14.1h-30.9C104.4,143.6,98,149.9,98,157.7z"/>
<path class="mistFront" d="M287.9,228.2H257c-7.9,0-14.2-6.3-14.2-14.1c0-7.8,6.3-14.1,14.1-14.1h2.5c7.9,0,14.2-6.3,14.2-14.1
	s-6.3-14.1-14.1-14.1H119.9c-7.8,0-14.1,6.3-14.1,14.1s6.3,14.1,14.1,14.1h47.9c7.9,0,14.1,6.3,14.1,14.1c0,7.8-6.3,14.1-14.2,14.1
	H14.1c-7.8,0-14.1,6.3-14.1,14.1c0,7.8,6.3,14.1,14.1,14.1h37.7c7.8,0,14.1,6.3,14.1,14.1c0,7.8-6.3,14.1-14.2,14.1h-5.2
	c-7.8,0-14.1,6.3-14.1,14.1c0,7.8,6.3,14.1,14.1,14.1h178.9c7.8,0,14.1-6.3,14.1-14.1c0-7.8-6.3-14.1-14.1-14.1H141
	c-7.9,0-14.2-6.3-14.2-14.1c0-7.8,6.3-14.1,14.1-14.1h146.9c7.9,0,14.2-6.3,14.2-14.1S295.6,228.2,287.9,228.2z"/>
</svg>
