<?xml version="1.0" encoding="utf-8"?>
<!-- Generator: Adobe Illustrator 26.1.0, SVG Export Plug-In . SVG Version: 6.00 Build 0)  -->
<svg version="1.1" id="Capa_1" xmlns="http://www.w3.org/2000/svg" xmlns:xlink="http://www.w3.org/1999/xlink" x="0px" y="0px"
	 viewBox="0 0 400 400" style="enable-background:new 0 0 400 400;" xml:space="preserve">
<style type="text/css">
	.st0{opacity:0.6;enable-background:new    ;}
	.st1{fill:#FFFFFF;}
	.st2{opacity:0.9;fill:#D7EBF5;enable-background:new    ;}
</style>
<g>
	<g>
		<g class="st0">
			<path class="st1" d="M113.1,187.7l6.2-0.9c-1.7-4.8-2.7-10-2.7-15.4c0-24.9,20.2-45.2,45.2-45.2c10.6,0,20.3,3.6,28,9.7
				c9.6-28.1,36.3-48.3,67.6-48.3c39.1,0,70.9,31.4,71.5,70.4l1.8-0.2c38.3,0,69.3,31,69.3,69.3s-31,69.3-69.3,69.3H113.1
				c-30,0-54.4-24.4-54.4-54.4C58.7,212.1,83.1,187.7,113.1,187.7z"/>
		</g>
	</g>
	<path class="st2" d="M222.5,246.7h-23.9c-6.1,0-11-4.9-11-10.9c0-6,4.9-10.9,10.9-10.9h1.9c6.1,0,11-4.9,11-10.9
		c0-6-4.9-10.9-10.9-10.9H92.7c-6,0-10.9,4.9-10.9,10.9c0,6,4.9,10.9,10.9,10.9h37c6.1,0,10.9,4.9,10.9,10.9c0,6-4.9,10.9-11,10.9
		H10.9c-6,0-10.9,4.9-10.9,10.9c0,6,4.9,10.9,10.9,10.9h29.1c6,0,10.9,4.9,10.9,10.9c0,6-4.9,10.9-11,10.9h-4
		c-6,0-10.9,4.9-10.9,10.9c0,6,4.9,10.9,10.9,10.9h138.3c6,0,10.9-4.9,10.9-10.9c0-6-4.9-10.9-10.9-10.9H109c-6.1,0-11-4.9-11-10.9
		c0-6,4.9-10.9,10.9-10.9h113.5c6.1,0,11-4.9,11-10.9C233.4,251.6,228.5,246.7,222.5,246.7z"/>
</g>
</svg>
