<?xml version="1.0" encoding="utf-8"?>
<!-- Generator: Adobe Illustrator 26.1.0, SVG Export Plug-In . SVG Version: 6.00 Build 0)  -->
<svg version="1.1" id="Capa_1" xmlns="http://www.w3.org/2000/svg" xmlns:xlink="http://www.w3.org/1999/xlink" x="0px" y="0px"
	 viewBox="0 0 400 400" style="enable-background:new 0 0 400 400;" xml:space="preserve">
<style type="text/css">
	.st0{opacity:0.6;enable-background:new    ;}
	.st1{fill:#FFFFFF;}
	.st2{opacity:0.8;enable-background:new    ;}
</style>
<g>
	<g class="st0">
		<path class="st1" d="M115.62,209.72l6.15-0.85c-1.73-4.76-2.67-9.89-2.67-15.24c0-24.73,20.06-44.79,44.79-44.79
			c10.48,0,20.11,3.61,27.74,9.64c9.56-27.86,35.95-47.91,67.05-47.91c38.79,0,70.28,31.17,70.85,69.82l1.76-0.24
			c37.94,0,68.7,30.76,68.7,68.7s-30.74,68.71-68.68,68.71h-215.7c-29.78,0-53.92-24.15-53.92-53.92
			C61.71,233.87,85.84,209.72,115.62,209.72z"/>
	</g>
	<g class="st2">
		<path class="st1" d="M139.47,254.11H60.79c-3.96,0-7.16-3.21-7.16-7.16s3.21-7.16,7.16-7.16h78.68c3.96,0,7.16,3.21,7.16,7.16
			S143.42,254.11,139.47,254.11z"/>
	</g>
	<g class="st2">
		<path class="st1" d="M265.09,339.54H109.66c-3.96,0-7.16-3.21-7.16-7.16c0-3.96,3.21-7.16,7.16-7.16h155.44
			c3.96,0,7.16,3.21,7.16,7.16C272.26,336.34,269.05,339.54,265.09,339.54z"/>
	</g>
	<g class="st2">
		<path class="st1" d="M240.76,282.59h-14.33c-3.96,0-7.16-3.21-7.16-7.16c0-3.96,3.21-7.16,7.16-7.16h14.33
			c3.96,0,7.16,3.21,7.16,7.16C247.92,279.38,244.72,282.59,240.76,282.59z M193.37,282.59H28.06c-3.96,0-7.16-3.21-7.16-7.16
			c0-3.96,3.21-7.16,7.16-7.16h165.31c3.96,0,7.16,3.21,7.16,7.16C200.53,279.38,197.33,282.59,193.37,282.59z"/>
	</g>
	<g class="st2">
		<path class="st1" d="M183.5,311.07H73.29c-3.96,0-7.16-3.21-7.16-7.16c0-3.96,3.21-7.16,7.16-7.16H183.5
			c3.96,0,7.16,3.21,7.16,7.16C190.66,307.86,187.45,311.07,183.5,311.07z M40.23,311.07H7.16c-3.96,0-7.16-3.21-7.16-7.16
			c0-3.96,3.21-7.16,7.16-7.16h33.06c3.96,0,7.16,3.21,7.16,7.16C47.39,307.86,44.18,311.07,40.23,311.07z"/>
	</g>
</g>
</svg>
