<?xml version="1.0" encoding="utf-8"?>
<!-- Generator: Adobe Illustrator 26.1.0, SVG Export Plug-In . SVG Version: 6.00 Build 0)  -->
<svg version="1.1" id="Capa_1" xmlns="http://www.w3.org/2000/svg" xmlns:xlink="http://www.w3.org/1999/xlink" x="0px" y="0px"
	 viewBox="0 0 400 400" style="enable-background:new 0 0 400 400;" xml:space="preserve">
<style type="text/css">
	.st0{opacity:0.8;enable-background:new    ;}
	.st1{fill:#FFFFFF;}
</style>
<g>
	<g class="st0">
		<path class="st1" d="M122.89,211.14l5.58-0.77c-1.57-4.32-2.42-8.97-2.42-13.83c0-22.44,18.2-40.64,40.64-40.64
			c9.51,0,18.25,3.28,25.17,8.75c8.67-25.28,32.62-43.47,60.84-43.47c35.2,0,63.77,28.28,64.29,63.35l1.6-0.22
			c34.43,0,62.34,27.91,62.34,62.34S353.04,309,318.61,309H122.89c-27.02,0-48.93-21.91-48.93-48.93
			C73.97,233.05,95.87,211.14,122.89,211.14z"/>
	</g>
	<g class="st0">
		<path class="st1" d="M144.53,251.42H73.14c-3.59,0-6.5-2.91-6.5-6.5s2.91-6.5,6.5-6.5h71.39c3.59,0,6.5,2.91,6.5,6.5
			S148.12,251.42,144.53,251.42z"/>
	</g>
	<g class="st0">
		<path class="st1" d="M258.52,328.94H117.48c-3.59,0-6.5-2.91-6.5-6.5s2.91-6.5,6.5-6.5h141.04c3.59,0,6.5,2.91,6.5,6.5
			S262.11,328.94,258.52,328.94z"/>
	</g>
	<g class="st0">
		<path class="st1" d="M236.44,277.26h-13c-3.59,0-6.5-2.91-6.5-6.5s2.91-6.5,6.5-6.5h13c3.59,0,6.5,2.91,6.5,6.5
			S240.03,277.26,236.44,277.26z M193.44,277.26h-150c-3.59,0-6.5-2.91-6.5-6.5s2.91-6.5,6.5-6.5h150c3.59,0,6.5,2.91,6.5,6.5
			S197.03,277.26,193.44,277.26z"/>
	</g>
	<g class="st0">
		<path class="st1" d="M184.48,303.1h-100c-3.59,0-6.5-2.91-6.5-6.5s2.91-6.5,6.5-6.5h100c3.59,0,6.5,2.91,6.5,6.5
			S188.07,303.1,184.48,303.1z M54.48,303.1h-30c-3.59,0-6.5-2.91-6.5-6.5s2.91-6.5,6.5-6.5h30c3.59,0,6.5,2.91,6.5,6.5
			S58.07,303.1,54.48,303.1z"/>
	</g>
</g>
</svg>
